<svg xmlns="http://www.w3.org/2000/svg" id="export" class="canvas" preserveAspectRatio="xMidYMid meet" style="" width="983" height="1198"><rect id="background" fill="#fff" pointer-events="all" width="983" height="1198"/><g id="origin" transform="translate(44.6719970703125, 44.6719970703125) scale(1)"><g id="clusters" class="clusters"/><g id="edge-paths" class="edge-paths" style="pointer-events: none;"><defs><marker id="arrowhead" viewBox="0 0 10 10" refX="9" refY="5" markerUnits="strokeWidth" markerWidth="8" markerHeight="6" orient="auto" style="fill: rgb(0, 0, 0);"><path d="M 0 0 L 10 5 L 0 10 L 4 5 z" style="stroke-width: 1;"/></marker><marker id="arrowhead-select" viewBox="0 0 10 10" refX="9" refY="5" markerUnits="strokeWidth" markerWidth="8" markerHeight="6" orient="auto" style="fill: rgba(220, 0, 0, 0.9);"><path d="M 0 0 L 10 5 L 0 10 L 4 5 z" style="stroke-width: 1;"/></marker><marker id="arrowhead-hover" viewBox="0 0 10 10" refX="9" refY="5" markerUnits="strokeWidth" markerWidth="8" markerHeight="6" orient="auto" style="fill: rgba(220, 0, 0, 0.9);"><path d="M 0 0 L 10 5 L 0 10 L 4 5 z" style="stroke-width: 1;"/></marker></defs><path id="edge-ctx.step_count" class="edge-path" d="M849.24072265625,20L849.24072265625,21.666666666666668C849.24072265625,23.333333333333332,849.24072265625,26.666666666666668,849.24072265625,30C849.24072265625,33.333333333333336,849.24072265625,36.666666666666664,849.24072265625,40C849.24072265625,43.333333333333336,849.24072265625,46.666666666666664,849.24072265625,50C849.24072265625,53.333333333333336,849.24072265625,56.666666666666664,849.24072265625,58.333333333333336L849.24072265625,60" style="stroke: rgb(0, 0, 0); stroke-width: 1px; fill: none; marker-end: url(&quot;#arrowhead&quot;);"/><path id="edge-is_event" class="edge-path" d="M849.24072265625,80L849.24072265625,81.66666666666667C849.24072265625,83.33333333333333,849.24072265625,86.66666666666667,849.24072265625,90C849.24072265625,93.33333333333333,849.24072265625,96.66666666666667,849.24072265625,98.33333333333333L849.24072265625,100" style="stroke: rgb(0, 0, 0); stroke-width: 1px; fill: none; marker-end: url(&quot;#arrowhead&quot;);"/><path id="edge-cond" class="edge-path" d="M849.24072265625,120L849.24072265625,121.66666666666667C849.24072265625,123.33333333333333,849.24072265625,126.66666666666667,822.2640603383383,156.17718316328936C795.2873980204264,185.68769965991206,741.3340733846029,241.37539931982408,714.357411066691,269.2192491497801L687.3807487487793,297.06309897973614" style="stroke: rgb(0, 0, 0); stroke-width: 1px; fill: none; marker-end: url(&quot;#arrowhead&quot;);"/><path id="edge-actions" class="edge-path" d="M687.3807487487793,969.9235208108574L699.7889359792074,986.1862673423811C712.1971232096354,1002.4490138739051,737.0134976704916,1034.9745069369526,749.4216849009196,1054.653920135143C761.8298721313477,1074.3333333333333,761.8298721313477,1081.1666666666667,761.8298721313477,1084.5833333333333L761.8298721313477,1088" style="stroke: rgb(0, 0, 0); stroke-width: 1px; fill: none; marker-end: url(&quot;#arrowhead&quot;);"/><path id="edge-obs" class="edge-path" d="M687.3807487487793,1046.172106527498L689.6360479990641,1049.7267554395817C691.891347249349,1053.2814043516653,696.4019457499186,1060.3907021758325,698.6572450002035,1067.362017754583C700.9125442504883,1074.3333333333333,700.9125442504883,1081.1666666666667,700.9125442504883,1084.5833333333333L700.9125442504883,1088" style="stroke: rgb(0, 0, 0); stroke-width: 1px; fill: none; marker-end: url(&quot;#arrowhead&quot;);"/><path id="edge-memory.actor_hidden_state_0.out" class="edge-path" d="M563.9944932833,1047L565.228698880696,1050.4166666666667C566.4629044780919,1053.8333333333333,568.9313156728839,1060.6666666666667,570.1655212702798,1067.5C571.3997268676758,1074.3333333333333,571.3997268676758,1081.1666666666667,571.3997268676758,1084.5833333333333L571.3997268676758,1088" style="stroke: rgb(0, 0, 0); stroke-width: 1px; fill: none; marker-end: url(&quot;#arrowhead&quot;);"/><path id="edge-memory.actor_hidden_state_1.out" class="edge-path" d="M365.8927463579781,1047L365.6344544133053,1050.4166666666667C365.3761624686326,1053.8333333333333,364.85957857928696,1060.6666666666667,364.60128663461415,1067.5C364.3429946899414,1074.3333333333333,364.3429946899414,1081.1666666666667,364.3429946899414,1084.5833333333333L364.3429946899414,1088" style="stroke: rgb(0, 0, 0); stroke-width: 1px; fill: none; marker-end: url(&quot;#arrowhead&quot;);"/><path id="edge-out" class="edge-path" d="M242.06015775978312,1047L240.86891172975092,1050.4166666666667C239.6776656997187,1053.8333333333333,237.29517363965428,1060.6666666666667,236.10392760962205,1067.5C234.91268157958984,1074.3333333333333,234.91268157958984,1081.1666666666667,234.91268157958984,1084.5833333333333L234.91268157958984,1088" style="stroke: rgb(0, 0, 0); stroke-width: 1px; fill: none; marker-end: url(&quot;#arrowhead&quot;);"/><path id="edge-memory.actions.out" class="edge-path" d="M152.93106544269287,1047L151.06832128972778,1050.4166666666667C149.20557713676268,1053.8333333333333,145.48008883083253,1060.6666666666667,143.61734467786744,1067.5C141.75460052490234,1074.3333333333333,141.75460052490234,1081.1666666666667,141.75460052490234,1084.5833333333333L141.75460052490234,1088" style="stroke: rgb(0, 0, 0); stroke-width: 1px; fill: none; marker-end: url(&quot;#arrowhead&quot;);"/></g><g id="edge-labels" class="edge-labels"><text class="edge-label" id="edge-label-edge-actions" transform="translate(766.8298721313477,1062)" style="opacity: 1; font-family: -apple-system, BlinkMacSystemFont, &quot;Segoe WPC&quot;, &quot;Segoe UI&quot;, Ubuntu, &quot;Droid Sans&quot;, sans-serif, &quot;PingFang SC&quot;; font-size: 10px;"><tspan xml:space="preserve" dy="1em" x="1">1×2</tspan></text><text class="edge-label" id="edge-label-edge-obs" transform="translate(705.9125442504883,1062)" style="opacity: 1; font-family: -apple-system, BlinkMacSystemFont, &quot;Segoe WPC&quot;, &quot;Segoe UI&quot;, Ubuntu, &quot;Droid Sans&quot;, sans-serif, &quot;PingFang SC&quot;; font-size: 10px;"><tspan xml:space="preserve" dy="1em" x="1">1×10</tspan></text><text class="edge-label" id="edge-label-edge-memory.actor_hidden_state_0.out" transform="translate(576.3997268676758,1062)" style="opacity: 1; font-family: -apple-system, BlinkMacSystemFont, &quot;Segoe WPC&quot;, &quot;Segoe UI&quot;, Ubuntu, &quot;Droid Sans&quot;, sans-serif, &quot;PingFang SC&quot;; font-size: 10px;"><tspan xml:space="preserve" dy="1em" x="1">1×1×5</tspan></text><text class="edge-label" id="edge-label-edge-memory.actor_hidden_state_1.out" transform="translate(369.3429946899414,1062)" style="opacity: 1; font-family: -apple-system, BlinkMacSystemFont, &quot;Segoe WPC&quot;, &quot;Segoe UI&quot;, Ubuntu, &quot;Droid Sans&quot;, sans-serif, &quot;PingFang SC&quot;; font-size: 10px;"><tspan xml:space="preserve" dy="1em" x="1">1×1×5</tspan></text><text class="edge-label" id="edge-label-edge-out" transform="translate(239.91268157958984,1062)" style="opacity: 1; font-family: -apple-system, BlinkMacSystemFont, &quot;Segoe WPC&quot;, &quot;Segoe UI&quot;, Ubuntu, &quot;Droid Sans&quot;, sans-serif, &quot;PingFang SC&quot;; font-size: 10px;"><tspan xml:space="preserve" dy="1em" x="1">1×2</tspan></text><text class="edge-label" id="edge-label-edge-memory.actions.out" transform="translate(146.75460052490234,1062)" style="opacity: 1; font-family: -apple-system, BlinkMacSystemFont, &quot;Segoe WPC&quot;, &quot;Segoe UI&quot;, Ubuntu, &quot;Droid Sans&quot;, sans-serif, &quot;PingFang SC&quot;; font-size: 10px;"><tspan xml:space="preserve" dy="1em" x="1">1×2</tspan></text></g><g id="nodes" class="nodes"><g id="input-name-ctx.step_count" class="node graph-input" transform="translate(805.0414962768555,0)" style=""><g class="node-item graph-item-input" transform="translate(0,0)"><path d="M5,0h78.39845275878906a5,5 0 0 1 5,5v10a5,5 0 0 1 -5,5h-78.39845275878906a5,5 0 0 1 -5,-5v-10a5,5 0 0 1 5,-5z" style="stroke: rgb(0, 0, 0); fill: rgb(238, 238, 238); stroke-width: 0;"/><text x="6" y="13" style="font-family: -apple-system, BlinkMacSystemFont, &quot;Segoe WPC&quot;, &quot;Segoe UI&quot;, Ubuntu, &quot;Droid Sans&quot;, sans-serif, &quot;PingFang SC&quot;; font-size: 11px; text-rendering: geometricprecision; user-select: none;">ctx.step_count</text><title>int32</title></g><path class="node node-border" d="M5,0h78.39845275878906a5,5 0 0 1 5,5v10a5,5 0 0 1 -5,5h-78.39845275878906a5,5 0 0 1 -5,-5v-10a5,5 0 0 1 5,-5z" style="stroke: rgb(51, 51, 51); fill: none; stroke-width: 1px;"/></g><g id="input-name-memory.actor_hidden_state_0.in" class="node graph-input" transform="translate(632.60009765625,60)" style=""><g class="node-item graph-item-input" transform="translate(0,0)"><path d="M5,0h168.359375a5,5 0 0 1 5,5v10a5,5 0 0 1 -5,5h-168.359375a5,5 0 0 1 -5,-5v-10a5,5 0 0 1 5,-5z" style="stroke: rgb(0, 0, 0); fill: rgb(238, 238, 238); stroke-width: 0;"/><text x="6" y="13" style="font-family: -apple-system, BlinkMacSystemFont, &quot;Segoe WPC&quot;, &quot;Segoe UI&quot;, Ubuntu, &quot;Droid Sans&quot;, sans-serif, &quot;PingFang SC&quot;; font-size: 11px; text-rendering: geometricprecision; user-select: none;">memory.actor_hidden_state_0.in</text><title>float32[1,1,5]</title></g><path class="node node-border" d="M5,0h168.359375a5,5 0 0 1 5,5v10a5,5 0 0 1 -5,5h-168.359375a5,5 0 0 1 -5,-5v-10a5,5 0 0 1 5,-5z" style="stroke: rgb(51, 51, 51); fill: none; stroke-width: 1px;"/></g><g id="input-name-memory.actor_hidden_state_1.in" class="node graph-input" transform="translate(434.24072265625,60)" style=""><g class="node-item graph-item-input" transform="translate(0,0)"><path d="M5,0h168.359375a5,5 0 0 1 5,5v10a5,5 0 0 1 -5,5h-168.359375a5,5 0 0 1 -5,-5v-10a5,5 0 0 1 5,-5z" style="stroke: rgb(0, 0, 0); fill: rgb(238, 238, 238); stroke-width: 0;"/><text x="6" y="13" style="font-family: -apple-system, BlinkMacSystemFont, &quot;Segoe WPC&quot;, &quot;Segoe UI&quot;, Ubuntu, &quot;Droid Sans&quot;, sans-serif, &quot;PingFang SC&quot;; font-size: 11px; text-rendering: geometricprecision; user-select: none;">memory.actor_hidden_state_1.in</text><title>float32[1,1,5]</title></g><path class="node node-border" d="M5,0h168.359375a5,5 0 0 1 5,5v10a5,5 0 0 1 -5,5h-168.359375a5,5 0 0 1 -5,-5v-10a5,5 0 0 1 5,-5z" style="stroke: rgb(51, 51, 51); fill: none; stroke-width: 1px;"/></g><g id="input-name-foo" class="node graph-input" transform="translate(257.19384765625,60)" style=""><g class="node-item graph-item-input" transform="translate(0,0)"><path d="M5,0h21.234375a5,5 0 0 1 5,5v10a5,5 0 0 1 -5,5h-21.234375a5,5 0 0 1 -5,-5v-10a5,5 0 0 1 5,-5z" style="stroke: rgb(0, 0, 0); fill: rgb(238, 238, 238); stroke-width: 0;"/><text x="6" y="13" style="font-family: -apple-system, BlinkMacSystemFont, &quot;Segoe WPC&quot;, &quot;Segoe UI&quot;, Ubuntu, &quot;Droid Sans&quot;, sans-serif, &quot;PingFang SC&quot;; font-size: 11px; text-rendering: geometricprecision; user-select: none;">foo</text><title>float32[1,4]</title></g><path class="node node-border" d="M5,0h21.234375a5,5 0 0 1 5,5v10a5,5 0 0 1 -5,5h-21.234375a5,5 0 0 1 -5,-5v-10a5,5 0 0 1 5,-5z" style="stroke: rgb(51, 51, 51); fill: none; stroke-width: 1px;"/></g><g id="input-name-memory.actions.in" class="node graph-input" transform="translate(308.42822265625,60)" style=""><g class="node-item graph-item-input" transform="translate(0,0)"><path d="M5,0h95.8125a5,5 0 0 1 5,5v10a5,5 0 0 1 -5,5h-95.8125a5,5 0 0 1 -5,-5v-10a5,5 0 0 1 5,-5z" style="stroke: rgb(0, 0, 0); fill: rgb(238, 238, 238); stroke-width: 0;"/><text x="6" y="13" style="font-family: -apple-system, BlinkMacSystemFont, &quot;Segoe WPC&quot;, &quot;Segoe UI&quot;, Ubuntu, &quot;Droid Sans&quot;, sans-serif, &quot;PingFang SC&quot;; font-size: 11px; text-rendering: geometricprecision; user-select: none;">memory.actions.in</text><title>float32[1,2]</title></g><path class="node node-border" d="M5,0h95.8125a5,5 0 0 1 5,5v10a5,5 0 0 1 -5,5h-95.8125a5,5 0 0 1 -5,-5v-10a5,5 0 0 1 5,-5z" style="stroke: rgb(51, 51, 51); fill: none; stroke-width: 1px;"/></g><g id="input-name-bar_baz_group.bar" class="node graph-input" transform="translate(128.6875,60)" style=""><g class="node-item graph-item-input" transform="translate(0,0)"><path d="M5,0h98.50634765625a5,5 0 0 1 5,5v10a5,5 0 0 1 -5,5h-98.50634765625a5,5 0 0 1 -5,-5v-10a5,5 0 0 1 5,-5z" style="stroke: rgb(0, 0, 0); fill: rgb(238, 238, 238); stroke-width: 0;"/><text x="6" y="13" style="font-family: -apple-system, BlinkMacSystemFont, &quot;Segoe WPC&quot;, &quot;Segoe UI&quot;, Ubuntu, &quot;Droid Sans&quot;, sans-serif, &quot;PingFang SC&quot;; font-size: 11px; text-rendering: geometricprecision; user-select: none;">bar_baz_group.bar</text><title>float32[1,2]</title></g><path class="node node-border" d="M5,0h98.50634765625a5,5 0 0 1 5,5v10a5,5 0 0 1 -5,5h-98.50634765625a5,5 0 0 1 -5,-5v-10a5,5 0 0 1 5,-5z" style="stroke: rgb(51, 51, 51); fill: none; stroke-width: 1px;"/></g><g id="input-name-bar_baz_group.baz" class="node graph-input" transform="translate(0,60)" style=""><g class="node-item graph-item-input" transform="translate(0,0)"><path d="M5,0h98.6875a5,5 0 0 1 5,5v10a5,5 0 0 1 -5,5h-98.6875a5,5 0 0 1 -5,-5v-10a5,5 0 0 1 5,-5z" style="stroke: rgb(0, 0, 0); fill: rgb(238, 238, 238); stroke-width: 0;"/><text x="6" y="13" style="font-family: -apple-system, BlinkMacSystemFont, &quot;Segoe WPC&quot;, &quot;Segoe UI&quot;, Ubuntu, &quot;Droid Sans&quot;, sans-serif, &quot;PingFang SC&quot;; font-size: 11px; text-rendering: geometricprecision; user-select: none;">bar_baz_group.baz</text><title>float32[1,2]</title></g><path class="node node-border" d="M5,0h98.6875a5,5 0 0 1 5,5v10a5,5 0 0 1 -5,5h-98.6875a5,5 0 0 1 -5,-5v-10a5,5 0 0 1 5,-5z" style="stroke: rgb(51, 51, 51); fill: none; stroke-width: 1px;"/></g><g id="node-id-0" class="node graph-node" transform="translate(830.95947265625,60)" style=""><g class="node-item node-item-type" transform="translate(0,0)"><path d="M5,0h26.5625a5,5 0 0 1 5,5v10a5,5 0 0 1 -5,5h-26.5625a5,5 0 0 1 -5,-5v-10a5,5 0 0 1 5,-5z" style="stroke: rgb(0, 0, 0); fill: rgb(51, 51, 51); stroke-width: 0;"/><text x="6" y="13" style="font-family: -apple-system, BlinkMacSystemFont, &quot;Segoe WPC&quot;, &quot;Segoe UI&quot;, Ubuntu, &quot;Droid Sans&quot;, sans-serif, &quot;PingFang SC&quot;; font-size: 11px; text-rendering: geometricprecision; user-select: none; fill: rgb(255, 255, 255);">Mod</text></g><path class="node node-border" d="M5,0h26.5625a5,5 0 0 1 5,5v10a5,5 0 0 1 -5,5h-26.5625a5,5 0 0 1 -5,-5v-10a5,5 0 0 1 5,-5z" style="stroke: rgb(51, 51, 51); fill: none; stroke-width: 1px;"/></g><g id="node-id-1" class="node graph-node" transform="translate(828.41259765625,100)" style=""><g class="node-item node-item-type" transform="translate(0,0)"><path d="M5,0h31.65625a5,5 0 0 1 5,5v10a5,5 0 0 1 -5,5h-31.65625a5,5 0 0 1 -5,-5v-10a5,5 0 0 1 5,-5z" style="stroke: rgb(0, 0, 0); fill: rgb(51, 51, 51); stroke-width: 0;"/><text x="6" y="13" style="font-family: -apple-system, BlinkMacSystemFont, &quot;Segoe WPC&quot;, &quot;Segoe UI&quot;, Ubuntu, &quot;Droid Sans&quot;, sans-serif, &quot;PingFang SC&quot;; font-size: 11px; text-rendering: geometricprecision; user-select: none; fill: rgb(255, 255, 255);">Equal</text></g><path class="node node-border" d="M5,0h31.65625a5,5 0 0 1 5,5v10a5,5 0 0 1 -5,5h-31.65625a5,5 0 0 1 -5,-5v-10a5,5 0 0 1 5,-5z" style="stroke: rgb(51, 51, 51); fill: none; stroke-width: 1px;"/></g><g id="node-id-2" class="node graph-node" transform="translate(112.97180557250977,140)" style=""><g class="node-item node-item-type" transform="translate(0,0)"><path d="M5,0h564.4089431762695a5,5 0 0 1 5,5v15a0,0 0 0 1 0,0h-574.4089431762695a0,0 0 0 1 0,0v-15a5,5 0 0 1 5,-5z" style="stroke: rgb(0, 0, 0); fill: rgb(51, 51, 51); stroke-width: 0;"/><text x="6" y="13" style="font-family: -apple-system, BlinkMacSystemFont, &quot;Segoe WPC&quot;, &quot;Segoe UI&quot;, Ubuntu, &quot;Droid Sans&quot;, sans-serif, &quot;PingFang SC&quot;; font-size: 11px; text-rendering: geometricprecision; user-select: none; fill: rgb(255, 255, 255);">If</text></g><g class="node-argument-list" transform="translate(0,20)"><path d="M0,0h574.4089431762695a0,0 0 0 1 0,0v882a5,5 0 0 1 -5,5h-564.4089431762695a5,5 0 0 1 -5,-5v-882a0,0 0 0 1 0,0z" style="stroke: rgb(0, 0, 0); fill: rgb(255, 255, 255); stroke-width: 0;"/><g class="node-argument"><rect rx="3" ry="3" x="3" y="3" width="568.4089431762695" height="238" style="fill: transparent;"/><text xml:space="preserve" x="6" y="12" style="font-family: -apple-system, BlinkMacSystemFont, &quot;Segoe WPC&quot;, &quot;Segoe UI&quot;, Ubuntu, &quot;Droid Sans&quot;, sans-serif, &quot;PingFang SC&quot;; font-size: 9px; font-weight: normal; text-rendering: geometricprecision; user-select: none;"><tspan>else_branch:</tspan></text><g id="node-name-process_actions" class="node graph-node" transform="translate(6,17)" style=""><g class="node-item node-item-type" transform="translate(0,0)"><path d="M5,0h537.1901931762695a0,0 0 0 1 0,0v20a0,0 0 0 1 0,0h-542.1901931762695a0,0 0 0 1 0,0v-15a5,5 0 0 1 5,-5z" style="stroke: rgb(0, 0, 0); fill: rgb(51, 51, 51); stroke-width: 0;"/><text x="6" y="13" style="font-family: -apple-system, BlinkMacSystemFont, &quot;Segoe WPC&quot;, &quot;Segoe UI&quot;, Ubuntu, &quot;Droid Sans&quot;, sans-serif, &quot;PingFang SC&quot;; font-size: 11px; text-rendering: geometricprecision; user-select: none; fill: rgb(255, 255, 255);">process_actions</text></g><g class="node-item node-item-type" transform="translate(542.1901931762695,0)"><path d="M0,0h15.21875a5,5 0 0 1 5,5v15a0,0 0 0 1 0,0h-20.21875a0,0 0 0 1 0,0v-20a0,0 0 0 1 0,0z" style="stroke: rgb(0, 0, 0); fill: rgb(51, 51, 51); stroke-width: 0;"/><text x="6" y="13" style="font-family: -apple-system, BlinkMacSystemFont, &quot;Segoe WPC&quot;, &quot;Segoe UI&quot;, Ubuntu, &quot;Droid Sans&quot;, sans-serif, &quot;PingFang SC&quot;; font-size: 11px; text-rendering: geometricprecision; user-select: none; fill: rgb(255, 255, 255);">−</text><title>Collapse Graph</title></g><line style="stroke: rgb(51, 51, 51); fill: none; stroke-width: 1px;"/><g class="node-block" transform="translate(0,20)"><path class="node-block-background" d="M0,0h562.4089431762695a0,0 0 0 1 0,0v197a5,5 0 0 1 -5,5h-552.4089431762695a5,5 0 0 1 -5,-5v-197a0,0 0 0 1 0,0z" style="stroke: none; fill: rgb(255, 255, 255); stroke-width: 0;"/><g transform="translate(10,10)"><g id="clusters" class="clusters"/><g id="edge-paths" class="edge-paths" style="pointer-events: none;"><defs><marker id="arrowhead" viewBox="0 0 10 10" refX="9" refY="5" markerUnits="strokeWidth" markerWidth="8" markerHeight="6" orient="auto" style="fill: rgb(0, 0, 0);"><path d="M 0 0 L 10 5 L 0 10 L 4 5 z" style="stroke-width: 1px; stroke: rgb(51, 51, 51); fill: none;"/></marker><marker id="arrowhead-select" viewBox="0 0 10 10" refX="9" refY="5" markerUnits="strokeWidth" markerWidth="8" markerHeight="6" orient="auto" style="fill: rgba(220, 0, 0, 0.9);"><path d="M 0 0 L 10 5 L 0 10 L 4 5 z" style="stroke-width: 1px; stroke: rgb(51, 51, 51); fill: none;"/></marker><marker id="arrowhead-hover" viewBox="0 0 10 10" refX="9" refY="5" markerUnits="strokeWidth" markerWidth="8" markerHeight="6" orient="auto" style="fill: rgba(220, 0, 0, 0.9);"><path d="M 0 0 L 10 5 L 0 10 L 4 5 z" style="stroke-width: 1px; stroke: rgb(51, 51, 51); fill: none;"/></marker></defs><path id="edge-memory.actions.out" class="edge-path" d="M406.1537322998047,20L406.1537322998047,23.416666666666668C406.1537322998047,26.833333333333332,406.1537322998047,33.666666666666664,406.1537322998047,40.5C406.1537322998047,47.333333333333336,406.1537322998047,54.166666666666664,406.1537322998047,57.583333333333336L406.1537322998047,61" style="stroke: rgb(0, 0, 0); fill: none; stroke-width: 1px; marker-end: url(&quot;#arrowhead&quot;);"/><path id="edge-/Expand_1_output_0" class="edge-path" d="M93.52836608886719,20L93.52836608886719,23.416666666666668C93.52836608886719,26.833333333333332,93.52836608886719,33.666666666666664,93.52836608886719,40.5C93.52836608886719,47.333333333333336,93.52836608886719,54.166666666666664,93.52836608886719,57.583333333333336L93.52836608886719,61" style="stroke: rgb(0, 0, 0); fill: none; stroke-width: 1px; marker-end: url(&quot;#arrowhead&quot;);"/><path id="edge-/Reshape_1_output_0" class="edge-path" d="M93.52836608886719,81L93.52836608886719,82.66666666666667C93.52836608886719,84.33333333333333,93.52836608886719,87.66666666666667,93.52836608886719,91C93.52836608886719,94.33333333333333,93.52836608886719,97.66666666666667,93.52836608886719,99.33333333333333L93.52836608886719,101" style="stroke: rgb(0, 0, 0); fill: none; stroke-width: 1px; marker-end: url(&quot;#arrowhead&quot;);"/><path id="edge-memory.actor_hidden_state_1.out" class="edge-path" d="M93.52836608886719,121L93.52836608886719,124.41666666666667C93.52836608886719,127.83333333333333,93.52836608886719,134.66666666666666,93.52836608886719,141.5C93.52836608886719,148.33333333333334,93.52836608886719,155.16666666666666,93.52836608886719,158.58333333333334L93.52836608886719,162" style="stroke: rgb(0, 0, 0); fill: none; stroke-width: 1px; marker-end: url(&quot;#arrowhead&quot;);"/><path id="edge-/Expand_output_0" class="edge-path" d="M300.58509826660156,20L300.58509826660156,23.416666666666668C300.58509826660156,26.833333333333332,300.58509826660156,33.666666666666664,300.58509826660156,40.5C300.58509826660156,47.333333333333336,300.58509826660156,54.166666666666664,300.58509826660156,57.583333333333336L300.58509826660156,61" style="stroke: rgb(0, 0, 0); fill: none; stroke-width: 1px; marker-end: url(&quot;#arrowhead&quot;);"/><path id="edge-/Reshape_output_0" class="edge-path" d="M300.58509826660156,81L300.58509826660156,82.66666666666667C300.58509826660156,84.33333333333333,300.58509826660156,87.66666666666667,300.58509826660156,91C300.58509826660156,94.33333333333333,300.58509826660156,97.66666666666667,300.58509826660156,99.33333333333333L300.58509826660156,101" style="stroke: rgb(0, 0, 0); fill: none; stroke-width: 1px; marker-end: url(&quot;#arrowhead&quot;);"/><path id="edge-memory.actor_hidden_state_0.out" class="edge-path" d="M300.58509826660156,121L300.58509826660156,124.41666666666667C300.58509826660156,127.83333333333333,300.58509826660156,134.66666666666666,300.58509826660156,141.5C300.58509826660156,148.33333333333334,300.58509826660156,155.16666666666666,300.58509826660156,158.58333333333334L300.58509826660156,162" style="stroke: rgb(0, 0, 0); fill: none; stroke-width: 1px; marker-end: url(&quot;#arrowhead&quot;);"/></g><g id="edge-paths-hit-test" class="edge-paths-hit-test" style="pointer-events: stroke; stroke-width: 0.5em; fill: none; stroke: rgb(0, 0, 0); stroke-opacity: 0.001;"><path d="M406.1537322998047,20L406.1537322998047,23.416666666666668C406.1537322998047,26.833333333333332,406.1537322998047,33.666666666666664,406.1537322998047,40.5C406.1537322998047,47.333333333333336,406.1537322998047,54.166666666666664,406.1537322998047,57.583333333333336L406.1537322998047,61" style="stroke: rgb(51, 51, 51); fill: none; stroke-width: 1px;"/><path d="M93.52836608886719,20L93.52836608886719,23.416666666666668C93.52836608886719,26.833333333333332,93.52836608886719,33.666666666666664,93.52836608886719,40.5C93.52836608886719,47.333333333333336,93.52836608886719,54.166666666666664,93.52836608886719,57.583333333333336L93.52836608886719,61" style="stroke: rgb(51, 51, 51); fill: none; stroke-width: 1px;"/><path d="M93.52836608886719,81L93.52836608886719,82.66666666666667C93.52836608886719,84.33333333333333,93.52836608886719,87.66666666666667,93.52836608886719,91C93.52836608886719,94.33333333333333,93.52836608886719,97.66666666666667,93.52836608886719,99.33333333333333L93.52836608886719,101" style="stroke: rgb(51, 51, 51); fill: none; stroke-width: 1px;"/><path d="M93.52836608886719,121L93.52836608886719,124.41666666666667C93.52836608886719,127.83333333333333,93.52836608886719,134.66666666666666,93.52836608886719,141.5C93.52836608886719,148.33333333333334,93.52836608886719,155.16666666666666,93.52836608886719,158.58333333333334L93.52836608886719,162" style="stroke: rgb(51, 51, 51); fill: none; stroke-width: 1px;"/><path d="M300.58509826660156,20L300.58509826660156,23.416666666666668C300.58509826660156,26.833333333333332,300.58509826660156,33.666666666666664,300.58509826660156,40.5C300.58509826660156,47.333333333333336,300.58509826660156,54.166666666666664,300.58509826660156,57.583333333333336L300.58509826660156,61" style="stroke: rgb(51, 51, 51); fill: none; stroke-width: 1px;"/><path d="M300.58509826660156,81L300.58509826660156,82.66666666666667C300.58509826660156,84.33333333333333,300.58509826660156,87.66666666666667,300.58509826660156,91C300.58509826660156,94.33333333333333,300.58509826660156,97.66666666666667,300.58509826660156,99.33333333333333L300.58509826660156,101" style="stroke: rgb(51, 51, 51); fill: none; stroke-width: 1px;"/><path d="M300.58509826660156,121L300.58509826660156,124.41666666666667C300.58509826660156,127.83333333333333,300.58509826660156,134.66666666666666,300.58509826660156,141.5C300.58509826660156,148.33333333333334,300.58509826660156,155.16666666666666,300.58509826660156,158.58333333333334L300.58509826660156,162" style="stroke: rgb(51, 51, 51); fill: none; stroke-width: 1px;"/></g><g id="edge-labels" class="edge-labels"><text class="edge-label" id="edge-label-edge-memory.actions.out" transform="translate(411.1537322998047,35)" style="opacity: 1; font-family: -apple-system, BlinkMacSystemFont, &quot;Segoe WPC&quot;, &quot;Segoe UI&quot;, Ubuntu, &quot;Droid Sans&quot;, sans-serif, &quot;PingFang SC&quot;; font-size: 10px;"><tspan xml:space="preserve" dy="1em" x="1">1×2</tspan></text><text class="edge-label" id="edge-label-edge-memory.actor_hidden_state_1.out" transform="translate(98.52836608886719,136)" style="opacity: 1; font-family: -apple-system, BlinkMacSystemFont, &quot;Segoe WPC&quot;, &quot;Segoe UI&quot;, Ubuntu, &quot;Droid Sans&quot;, sans-serif, &quot;PingFang SC&quot;; font-size: 10px;"><tspan xml:space="preserve" dy="1em" x="1">1×1×5</tspan></text><text class="edge-label" id="edge-label-edge-memory.actor_hidden_state_0.out" transform="translate(305.58509826660156,136)" style="opacity: 1; font-family: -apple-system, BlinkMacSystemFont, &quot;Segoe WPC&quot;, &quot;Segoe UI&quot;, Ubuntu, &quot;Droid Sans&quot;, sans-serif, &quot;PingFang SC&quot;; font-size: 10px;"><tspan xml:space="preserve" dy="1em" x="1">1×1×5</tspan></text></g><g id="nodes" class="nodes"><g id="node-name-Identity_44" class="node graph-node" transform="translate(379.38985443115234,0)" style=""><g class="node-item node-item-type" transform="translate(0,0)"><path d="M5,0h43.52775573730469a5,5 0 0 1 5,5v10a5,5 0 0 1 -5,5h-43.52775573730469a5,5 0 0 1 -5,-5v-10a5,5 0 0 1 5,-5z" style="stroke: rgb(0, 0, 0); fill: rgb(51, 51, 51); stroke-width: 0;"/><text x="6" y="13" style="font-family: -apple-system, BlinkMacSystemFont, &quot;Segoe WPC&quot;, &quot;Segoe UI&quot;, Ubuntu, &quot;Droid Sans&quot;, sans-serif, &quot;PingFang SC&quot;; font-size: 11px; text-rendering: geometricprecision; user-select: none; fill: rgb(255, 255, 255);">Identity</text><title>Identity_44</title></g><path class="node node-border" d="M5,0h43.52775573730469a5,5 0 0 1 5,5v10a5,5 0 0 1 -5,5h-43.52775573730469a5,5 0 0 1 -5,-5v-10a5,5 0 0 1 5,-5z" style="stroke: rgb(51, 51, 51); fill: none; stroke-width: 1px;"/></g><g id="node-name-/Expand_1" class="node graph-node" transform="translate(68.02055358886719,0)" style=""><g class="node-item node-item-type" transform="translate(0,0)"><path d="M5,0h41.015625a5,5 0 0 1 5,5v10a5,5 0 0 1 -5,5h-41.015625a5,5 0 0 1 -5,-5v-10a5,5 0 0 1 5,-5z" style="stroke: rgb(0, 0, 0); fill: rgb(51, 51, 51); stroke-width: 0;"/><text x="6" y="13" style="font-family: -apple-system, BlinkMacSystemFont, &quot;Segoe WPC&quot;, &quot;Segoe UI&quot;, Ubuntu, &quot;Droid Sans&quot;, sans-serif, &quot;PingFang SC&quot;; font-size: 11px; text-rendering: geometricprecision; user-select: none; fill: rgb(255, 255, 255);">Expand</text><title>/Expand_1</title></g><path class="node node-border" d="M5,0h41.015625a5,5 0 0 1 5,5v10a5,5 0 0 1 -5,5h-41.015625a5,5 0 0 1 -5,-5v-10a5,5 0 0 1 5,-5z" style="stroke: rgb(51, 51, 51); fill: none; stroke-width: 1px;"/></g><g id="node-name-/Reshape_1" class="node graph-node" transform="translate(65.21586608886719,61)" style=""><g class="node-item node-item-type node-item-type-shape" transform="translate(0,0)"><path d="M5,0h46.625a5,5 0 0 1 5,5v10a5,5 0 0 1 -5,5h-46.625a5,5 0 0 1 -5,-5v-10a5,5 0 0 1 5,-5z" style="stroke: rgb(0, 0, 0); fill: rgb(108, 79, 71); stroke-width: 0;"/><text x="6" y="13" style="font-family: -apple-system, BlinkMacSystemFont, &quot;Segoe WPC&quot;, &quot;Segoe UI&quot;, Ubuntu, &quot;Droid Sans&quot;, sans-serif, &quot;PingFang SC&quot;; font-size: 11px; text-rendering: geometricprecision; user-select: none; fill: rgb(255, 255, 255);">Reshape</text><title>/Reshape_1</title></g><path class="node node-border" d="M5,0h46.625a5,5 0 0 1 5,5v10a5,5 0 0 1 -5,5h-46.625a5,5 0 0 1 -5,-5v-10a5,5 0 0 1 5,-5z" style="stroke: rgb(51, 51, 51); fill: none; stroke-width: 1px;"/></g><g id="node-name-/ScatterND_1" class="node graph-node" transform="translate(60.60552978515625,101)" style=""><g class="node-item node-item-type" transform="translate(0,0)"><path d="M5,0h55.845672607421875a5,5 0 0 1 5,5v10a5,5 0 0 1 -5,5h-55.845672607421875a5,5 0 0 1 -5,-5v-10a5,5 0 0 1 5,-5z" style="stroke: rgb(0, 0, 0); fill: rgb(51, 51, 51); stroke-width: 0;"/><text x="6" y="13" style="font-family: -apple-system, BlinkMacSystemFont, &quot;Segoe WPC&quot;, &quot;Segoe UI&quot;, Ubuntu, &quot;Droid Sans&quot;, sans-serif, &quot;PingFang SC&quot;; font-size: 11px; text-rendering: geometricprecision; user-select: none; fill: rgb(255, 255, 255);">ScatterND</text><title>/ScatterND_1</title></g><path class="node node-border" d="M5,0h55.845672607421875a5,5 0 0 1 5,5v10a5,5 0 0 1 -5,5h-55.845672607421875a5,5 0 0 1 -5,-5v-10a5,5 0 0 1 5,-5z" style="stroke: rgb(51, 51, 51); fill: none; stroke-width: 1px;"/></g><g id="node-name-/Expand" class="node graph-node" transform="translate(275.07728576660156,0)" style=""><g class="node-item node-item-type" transform="translate(0,0)"><path d="M5,0h41.015625a5,5 0 0 1 5,5v10a5,5 0 0 1 -5,5h-41.015625a5,5 0 0 1 -5,-5v-10a5,5 0 0 1 5,-5z" style="stroke: rgb(0, 0, 0); fill: rgb(51, 51, 51); stroke-width: 0;"/><text x="6" y="13" style="font-family: -apple-system, BlinkMacSystemFont, &quot;Segoe WPC&quot;, &quot;Segoe UI&quot;, Ubuntu, &quot;Droid Sans&quot;, sans-serif, &quot;PingFang SC&quot;; font-size: 11px; text-rendering: geometricprecision; user-select: none; fill: rgb(255, 255, 255);">Expand</text><title>/Expand</title></g><path class="node node-border" d="M5,0h41.015625a5,5 0 0 1 5,5v10a5,5 0 0 1 -5,5h-41.015625a5,5 0 0 1 -5,-5v-10a5,5 0 0 1 5,-5z" style="stroke: rgb(51, 51, 51); fill: none; stroke-width: 1px;"/></g><g id="node-name-/Reshape" class="node graph-node" transform="translate(272.27259826660156,61)" style=""><g class="node-item node-item-type node-item-type-shape" transform="translate(0,0)"><path d="M5,0h46.625a5,5 0 0 1 5,5v10a5,5 0 0 1 -5,5h-46.625a5,5 0 0 1 -5,-5v-10a5,5 0 0 1 5,-5z" style="stroke: rgb(0, 0, 0); fill: rgb(108, 79, 71); stroke-width: 0;"/><text x="6" y="13" style="font-family: -apple-system, BlinkMacSystemFont, &quot;Segoe WPC&quot;, &quot;Segoe UI&quot;, Ubuntu, &quot;Droid Sans&quot;, sans-serif, &quot;PingFang SC&quot;; font-size: 11px; text-rendering: geometricprecision; user-select: none; fill: rgb(255, 255, 255);">Reshape</text><title>/Reshape</title></g><path class="node node-border" d="M5,0h46.625a5,5 0 0 1 5,5v10a5,5 0 0 1 -5,5h-46.625a5,5 0 0 1 -5,-5v-10a5,5 0 0 1 5,-5z" style="stroke: rgb(51, 51, 51); fill: none; stroke-width: 1px;"/></g><g id="node-name-/ScatterND" class="node graph-node" transform="translate(267.6622619628906,101)" style=""><g class="node-item node-item-type" transform="translate(0,0)"><path d="M5,0h55.845672607421875a5,5 0 0 1 5,5v10a5,5 0 0 1 -5,5h-55.845672607421875a5,5 0 0 1 -5,-5v-10a5,5 0 0 1 5,-5z" style="stroke: rgb(0, 0, 0); fill: rgb(51, 51, 51); stroke-width: 0;"/><text x="6" y="13" style="font-family: -apple-system, BlinkMacSystemFont, &quot;Segoe WPC&quot;, &quot;Segoe UI&quot;, Ubuntu, &quot;Droid Sans&quot;, sans-serif, &quot;PingFang SC&quot;; font-size: 11px; text-rendering: geometricprecision; user-select: none; fill: rgb(255, 255, 255);">ScatterND</text><title>/ScatterND</title></g><path class="node node-border" d="M5,0h55.845672607421875a5,5 0 0 1 5,5v10a5,5 0 0 1 -5,5h-55.845672607421875a5,5 0 0 1 -5,-5v-10a5,5 0 0 1 5,-5z" style="stroke: rgb(51, 51, 51); fill: none; stroke-width: 1px;"/></g><g class="node" transform="translate(207.05673217773438,162)" style=""><g class="node-item graph-item-output" transform="translate(0,0)"><path d="M5,0h177.05673217773438a5,5 0 0 1 5,5v10a5,5 0 0 1 -5,5h-177.05673217773438a5,5 0 0 1 -5,-5v-10a5,5 0 0 1 5,-5z" style="stroke: rgb(0, 0, 0); fill: rgb(238, 238, 238); stroke-width: 0;"/><text x="6" y="13" style="font-family: -apple-system, BlinkMacSystemFont, &quot;Segoe WPC&quot;, &quot;Segoe UI&quot;, Ubuntu, &quot;Droid Sans&quot;, sans-serif, &quot;PingFang SC&quot;; font-size: 11px; text-rendering: geometricprecision; user-select: none;">memory.actor_hidden_state_0.out</text><title>float32[1,1,5]</title></g><path class="node node-border" d="M5,0h177.05673217773438a5,5 0 0 1 5,5v10a5,5 0 0 1 -5,5h-177.05673217773438a5,5 0 0 1 -5,-5v-10a5,5 0 0 1 5,-5z" style="stroke: rgb(51, 51, 51); fill: none; stroke-width: 1px;"/></g><g class="node" transform="translate(0,162)" style=""><g class="node-item graph-item-output" transform="translate(0,0)"><path d="M5,0h177.05673217773438a5,5 0 0 1 5,5v10a5,5 0 0 1 -5,5h-177.05673217773438a5,5 0 0 1 -5,-5v-10a5,5 0 0 1 5,-5z" style="stroke: rgb(0, 0, 0); fill: rgb(238, 238, 238); stroke-width: 0;"/><text x="6" y="13" style="font-family: -apple-system, BlinkMacSystemFont, &quot;Segoe WPC&quot;, &quot;Segoe UI&quot;, Ubuntu, &quot;Droid Sans&quot;, sans-serif, &quot;PingFang SC&quot;; font-size: 11px; text-rendering: geometricprecision; user-select: none;">memory.actor_hidden_state_1.out</text><title>float32[1,1,5]</title></g><path class="node node-border" d="M5,0h177.05673217773438a5,5 0 0 1 5,5v10a5,5 0 0 1 -5,5h-177.05673217773438a5,5 0 0 1 -5,-5v-10a5,5 0 0 1 5,-5z" style="stroke: rgb(51, 51, 51); fill: none; stroke-width: 1px;"/></g><g class="node" transform="translate(348.89759826660156,61)" style=""><g class="node-item graph-item-output" transform="translate(0,0)"><path d="M5,0h104.51226806640625a5,5 0 0 1 5,5v10a5,5 0 0 1 -5,5h-104.51226806640625a5,5 0 0 1 -5,-5v-10a5,5 0 0 1 5,-5z" style="stroke: rgb(0, 0, 0); fill: rgb(238, 238, 238); stroke-width: 0;"/><text x="6" y="13" style="font-family: -apple-system, BlinkMacSystemFont, &quot;Segoe WPC&quot;, &quot;Segoe UI&quot;, Ubuntu, &quot;Droid Sans&quot;, sans-serif, &quot;PingFang SC&quot;; font-size: 11px; text-rendering: geometricprecision; user-select: none;">memory.actions.out</text><title>float32[1,2]</title></g><path class="node node-border" d="M5,0h104.51226806640625a5,5 0 0 1 5,5v10a5,5 0 0 1 -5,5h-104.51226806640625a5,5 0 0 1 -5,-5v-10a5,5 0 0 1 5,-5z" style="stroke: rgb(51, 51, 51); fill: none; stroke-width: 1px;"/></g></g><g id="tunnel-edges" class="tunnel-edges"/></g></g><line class="node" x1="0" x2="562.4089431762695" y1="20" y2="20" style="stroke: rgb(51, 51, 51); fill: none; stroke-width: 1px;"/><path class="node node-border" d="M5,0h552.4089431762695a5,5 0 0 1 5,5v212a5,5 0 0 1 -5,5h-552.4089431762695a5,5 0 0 1 -5,-5v-212a5,5 0 0 1 5,-5z" style="stroke: rgb(51, 51, 51); fill: none; stroke-width: 1px;"/></g></g><g class="node-argument"><rect rx="3" ry="3" x="3" y="241" width="568.4089431762695" height="640" style="fill: transparent;"/><text xml:space="preserve" x="6" y="250" style="font-family: -apple-system, BlinkMacSystemFont, &quot;Segoe WPC&quot;, &quot;Segoe UI&quot;, Ubuntu, &quot;Droid Sans&quot;, sans-serif, &quot;PingFang SC&quot;; font-size: 9px; font-weight: normal; text-rendering: geometricprecision; user-select: none;"><tspan>then_branch:</tspan></text><g id="node-name-default" class="node graph-node" transform="translate(6,255)" style=""><g class="node-item node-item-type" transform="translate(0,0)"><path d="M5,0h537.1901931762695a0,0 0 0 1 0,0v20a0,0 0 0 1 0,0h-542.1901931762695a0,0 0 0 1 0,0v-15a5,5 0 0 1 5,-5z" style="stroke: rgb(0, 0, 0); fill: rgb(51, 51, 51); stroke-width: 0;"/><text x="6" y="13" style="font-family: -apple-system, BlinkMacSystemFont, &quot;Segoe WPC&quot;, &quot;Segoe UI&quot;, Ubuntu, &quot;Droid Sans&quot;, sans-serif, &quot;PingFang SC&quot;; font-size: 11px; text-rendering: geometricprecision; user-select: none; fill: rgb(255, 255, 255);">default</text></g><g class="node-item node-item-type" transform="translate(542.1901931762695,0)"><path d="M0,0h15.21875a5,5 0 0 1 5,5v15a0,0 0 0 1 0,0h-20.21875a0,0 0 0 1 0,0v-20a0,0 0 0 1 0,0z" style="stroke: rgb(0, 0, 0); fill: rgb(51, 51, 51); stroke-width: 0;"/><text x="6" y="13" style="font-family: -apple-system, BlinkMacSystemFont, &quot;Segoe WPC&quot;, &quot;Segoe UI&quot;, Ubuntu, &quot;Droid Sans&quot;, sans-serif, &quot;PingFang SC&quot;; font-size: 11px; text-rendering: geometricprecision; user-select: none; fill: rgb(255, 255, 255);">−</text><title>Collapse Graph</title></g><line style="stroke: rgb(51, 51, 51); fill: none; stroke-width: 1px;"/><g class="node-block" transform="translate(0,20)"><path class="node-block-background" d="M0,0h562.4089431762695a0,0 0 0 1 0,0v599a5,5 0 0 1 -5,5h-552.4089431762695a5,5 0 0 1 -5,-5v-599a0,0 0 0 1 0,0z" style="stroke: none; fill: rgb(255, 255, 255); stroke-width: 0;"/><g transform="translate(10,10)"><g id="clusters" class="clusters"/><g id="edge-paths" class="edge-paths" style="pointer-events: none;"><defs><marker id="arrowhead" viewBox="0 0 10 10" refX="9" refY="5" markerUnits="strokeWidth" markerWidth="8" markerHeight="6" orient="auto" style="fill: rgb(0, 0, 0);"><path d="M 0 0 L 10 5 L 0 10 L 4 5 z" style="stroke-width: 1px; stroke: rgb(51, 51, 51); fill: none;"/></marker><marker id="arrowhead-select" viewBox="0 0 10 10" refX="9" refY="5" markerUnits="strokeWidth" markerWidth="8" markerHeight="6" orient="auto" style="fill: rgba(220, 0, 0, 0.9);"><path d="M 0 0 L 10 5 L 0 10 L 4 5 z" style="stroke-width: 1px; stroke: rgb(51, 51, 51); fill: none;"/></marker><marker id="arrowhead-hover" viewBox="0 0 10 10" refX="9" refY="5" markerUnits="strokeWidth" markerWidth="8" markerHeight="6" orient="auto" style="fill: rgba(220, 0, 0, 0.9);"><path d="M 0 0 L 10 5 L 0 10 L 4 5 z" style="stroke-width: 1px; stroke: rgb(51, 51, 51); fill: none;"/></marker></defs><path id="edge-/Mul_output_0" class="edge-path" d="M165.31281280517578,20L165.31281280517578,21.666666666666668C165.31281280517578,23.333333333333332,165.31281280517578,26.666666666666668,165.31281280517578,30C165.31281280517578,33.333333333333336,165.31281280517578,36.666666666666664,165.31281280517578,38.333333333333336L165.31281280517578,40" style="stroke: rgb(0, 0, 0); fill: none; stroke-width: 1px; marker-end: url(&quot;#arrowhead&quot;);"/><path id="edge-/Add_1_output_0" class="edge-path" d="M165.31281280517578,60L165.31281280517578,61.666666666666664C165.31281280517578,63.333333333333336,165.31281280517578,66.66666666666667,167.80011749267578,70C170.28742218017578,73.33333333333333,175.26203155517578,76.66666666666667,177.74933624267578,78.33333333333333L180.23664093017578,80" style="stroke: rgb(0, 0, 0); fill: none; stroke-width: 1px; marker-end: url(&quot;#arrowhead&quot;);"/><path id="edge-/exporter_registered_module_0/Gemm_output_0" class="edge-path" d="M233.57508850097656,20L233.57508850097656,21.666666666666668C233.57508850097656,23.333333333333332,233.57508850097656,26.666666666666668,233.57508850097656,30C233.57508850097656,33.333333333333336,233.57508850097656,36.666666666666664,233.57508850097656,38.333333333333336L233.57508850097656,40" style="stroke: rgb(0, 0, 0); fill: none; stroke-width: 1px; marker-end: url(&quot;#arrowhead&quot;);"/><path id="edge-/Add_output_0" class="edge-path" d="M233.57508850097656,60L233.57508850097656,61.666666666666664C233.57508850097656,63.333333333333336,233.57508850097656,66.66666666666667,230.3738702138265,70C227.17265192667642,73.33333333333333,220.7702153523763,76.66666666666667,217.56899706522623,78.33333333333333L214.36777877807617,80" style="stroke: rgb(0, 0, 0); fill: none; stroke-width: 1px; marker-end: url(&quot;#arrowhead&quot;);"/><path id="edge-obs" class="edge-path" d="M183.60564097420115,100L179.65774137986816,103.41666666666667C175.70984178553513,106.83333333333333,167.81404259686914,113.66666666666667,163.86614300253612,120.5C159.91824340820312,127.33333333333333,159.91824340820312,134.16666666666666,159.91824340820312,137.58333333333334L159.91824340820312,141" style="stroke: rgb(0, 0, 0); fill: none; stroke-width: 1px; marker-end: url(&quot;#arrowhead&quot;);"/><path id="edge-obs" class="edge-path" d="M206.7152971361504,100L210.6631967304834,103.41666666666667C214.61109632481643,106.83333333333333,222.50689551348242,113.66666666666667,226.45479510781544,120.5C230.40269470214844,127.33333333333333,230.40269470214844,134.16666666666666,230.40269470214844,137.58333333333334L230.40269470214844,141" style="stroke: rgb(0, 0, 0); fill: none; stroke-width: 1px; marker-end: url(&quot;#arrowhead&quot;);"/><path id="edge-/actor/Unsqueeze_output_0" class="edge-path" d="M159.91824340820312,161L159.91824340820312,162.66666666666666C159.91824340820312,164.33333333333334,159.91824340820312,167.66666666666666,175.56698354085287,172.06315549818495C191.2157236735026,176.45964432970322,222.5132039388021,181.91928865940645,238.1619440714518,184.64911082425803L253.81068420410156,187.37893298910964" style="stroke: rgb(0, 0, 0); fill: none; stroke-width: 1px; marker-end: url(&quot;#arrowhead&quot;);"/><path id="edge-/Expand_1_output_0" class="edge-path" d="M301.3415298461914,60L301.3415298461914,61.666666666666664C301.3415298461914,63.333333333333336,301.3415298461914,66.66666666666667,301.3415298461914,70C301.3415298461914,73.33333333333333,301.3415298461914,76.66666666666667,301.3415298461914,78.33333333333333L301.3415298461914,80" style="stroke: rgb(0, 0, 0); fill: none; stroke-width: 1px; marker-end: url(&quot;#arrowhead&quot;);"/><path id="edge-/Reshape_1_output_0" class="edge-path" d="M301.3415298461914,100L301.3415298461914,103.41666666666667C301.3415298461914,106.83333333333333,301.3415298461914,113.66666666666667,301.3415298461914,120.5C301.3415298461914,127.33333333333333,301.3415298461914,134.16666666666666,301.3415298461914,137.58333333333334L301.3415298461914,141" style="stroke: rgb(0, 0, 0); fill: none; stroke-width: 1px; marker-end: url(&quot;#arrowhead&quot;);"/><path id="edge-/ScatterND_1_output_0" class="edge-path" d="M301.3415298461914,161L301.3415298461914,162.66666666666666C301.3415298461914,164.33333333333334,301.3415298461914,167.66666666666666,299.11044375101727,171C296.8793576558431,174.33333333333334,292.4171854654948,177.66666666666666,290.1860993703206,179.33333333333334L287.9550132751465,181" style="stroke: rgb(0, 0, 0); fill: none; stroke-width: 1px; marker-end: url(&quot;#arrowhead&quot;);"/><path id="edge-/Expand_output_0" class="edge-path" d="M387.1872024536133,60L387.1872024536133,61.666666666666664C387.1872024536133,63.333333333333336,387.1872024536133,66.66666666666667,387.1872024536133,70C387.1872024536133,73.33333333333333,387.1872024536133,76.66666666666667,387.1872024536133,78.33333333333333L387.1872024536133,80" style="stroke: rgb(0, 0, 0); fill: none; stroke-width: 1px; marker-end: url(&quot;#arrowhead&quot;);"/><path id="edge-/Reshape_output_0" class="edge-path" d="M387.1872024536133,100L387.1872024536133,103.41666666666667C387.1872024536133,106.83333333333333,387.1872024536133,113.66666666666667,387.1872024536133,120.5C387.1872024536133,127.33333333333333,387.1872024536133,134.16666666666666,387.1872024536133,137.58333333333334L387.1872024536133,141" style="stroke: rgb(0, 0, 0); fill: none; stroke-width: 1px; marker-end: url(&quot;#arrowhead&quot;);"/><path id="edge-/ScatterND_output_0" class="edge-path" d="M387.1872024536133,161L387.1872024536133,162.66666666666666C387.1872024536133,164.33333333333334,387.1872024536133,167.66666666666666,371.87705357869464,172.05226865993382C356.56690470377606,176.43787065320097,325.9466069539388,181.87574130640192,310.6364580790202,184.59467663300242L295.32630920410156,187.3136119596029" style="stroke: rgb(0, 0, 0); fill: none; stroke-width: 1px; marker-end: url(&quot;#arrowhead&quot;);"/><path id="edge-/actor/_rnn/LSTM_output_0" class="edge-path" d="M253.81068420410156,194.63206772507004L228.21830622355142,199.11005643755837C202.6259282430013,203.5880451500467,151.44117228190103,212.54402257502338,125.8487943013509,220.43867795417836C100.25641632080078,228.33333333333334,100.25641632080078,235.16666666666666,100.25641632080078,238.58333333333334L100.25641632080078,242" style="stroke: rgb(0, 0, 0); fill: none; stroke-width: 1px; marker-end: url(&quot;#arrowhead&quot;);"/><path id="edge-memory.actor_hidden_state_0.out" class="edge-path" d="M263.83254529609053,201L260.1644285650201,204.41666666666666C256.4963118339497,207.83333333333334,249.16007837180882,214.66666666666666,245.4919616407384,221.5C241.82384490966797,228.33333333333334,241.82384490966797,235.16666666666666,241.82384490966797,238.58333333333334L241.82384490966797,242" style="stroke: rgb(0, 0, 0); fill: none; stroke-width: 1px; marker-end: url(&quot;#arrowhead&quot;);"/><path id="edge-memory.actor_hidden_state_1.out" class="edge-path" d="M295.32630920410156,194.63206772507004L320.9186871846517,199.11005643755837C346.51106516520184,203.5880451500467,397.69582112630206,212.54402257502338,423.28819910685223,220.43867795417836C448.88057708740234,228.33333333333334,448.88057708740234,235.16666666666666,448.88057708740234,238.58333333333334L448.88057708740234,242" style="stroke: rgb(0, 0, 0); fill: none; stroke-width: 1px; marker-end: url(&quot;#arrowhead&quot;);"/><path id="edge-/actor/_rnn/Squeeze_output_0" class="edge-path" d="M100.25641632080078,262L100.25641632080078,263.6666666666667C100.25641632080078,265.3333333333333,100.25641632080078,268.6666666666667,100.25641632080078,272C100.25641632080078,275.3333333333333,100.25641632080078,278.6666666666667,100.25641632080078,280.3333333333333L100.25641632080078,282" style="stroke: rgb(0, 0, 0); fill: none; stroke-width: 1px; marker-end: url(&quot;#arrowhead&quot;);"/><path id="edge-/actor/Squeeze_output_0" class="edge-path" d="M100.25641632080078,302L100.25641632080078,303.6666666666667C100.25641632080078,305.3333333333333,100.25641632080078,308.6666666666667,100.25641632080078,312C100.25641632080078,315.3333333333333,100.25641632080078,318.6666666666667,100.25641632080078,320.3333333333333L100.25641632080078,322" style="stroke: rgb(0, 0, 0); fill: none; stroke-width: 1px; marker-end: url(&quot;#arrowhead&quot;);"/><path id="edge-/actor/_net/_net/_net.1/Elu_output_0" class="edge-path" d="M100.25641632080078,342L100.25641632080078,343.6666666666667C100.25641632080078,345.3333333333333,100.25641632080078,348.6666666666667,100.25641632080078,352C100.25641632080078,355.3333333333333,100.25641632080078,358.6666666666667,100.25641632080078,360.3333333333333L100.25641632080078,362" style="stroke: rgb(0, 0, 0); fill: none; stroke-width: 1px; marker-end: url(&quot;#arrowhead&quot;);"/><path id="edge-/actor/_net/_net/_net.3/Relu_output_0" class="edge-path" d="M100.25641632080078,382L100.25641632080078,383.6666666666667C100.25641632080078,385.3333333333333,100.25641632080078,388.6666666666667,100.25641632080078,392C100.25641632080078,395.3333333333333,100.25641632080078,398.6666666666667,100.25641632080078,400.3333333333333L100.25641632080078,402" style="stroke: rgb(0, 0, 0); fill: none; stroke-width: 1px; marker-end: url(&quot;#arrowhead&quot;);"/><path id="edge-actions" class="edge-path" d="M72.97716096971855,422L63.656748724765464,425.4166666666667C54.33633647981237,428.8333333333333,35.69551198990619,435.6666666666667,26.375099744953094,442.5C17.0546875,449.3333333333333,17.0546875,456.1666666666667,17.0546875,459.5833333333333L17.0546875,463" style="stroke: rgb(0, 0, 0); fill: none; stroke-width: 1px; marker-end: url(&quot;#arrowhead&quot;);"/><path id="edge-actions" class="edge-path" d="M103.52079410240299,422L104.63612317778374,425.4166666666667C105.75145225316449,428.8333333333333,107.982110403926,435.6666666666667,109.09743947930674,442.5C110.2127685546875,449.3333333333333,110.2127685546875,456.1666666666667,110.2127685546875,459.5833333333333L110.2127685546875,463" style="stroke: rgb(0, 0, 0); fill: none; stroke-width: 1px; marker-end: url(&quot;#arrowhead&quot;);"/><path id="edge-actions" class="edge-path" d="M127.53567167188301,422L136.8560839168361,425.4166666666667C146.17649616178917,428.8333333333333,164.81732065169538,435.6666666666667,174.13773289664846,442.5C183.45814514160156,449.3333333333333,183.45814514160156,456.1666666666667,183.45814514160156,459.5833333333333L183.45814514160156,463" style="stroke: rgb(0, 0, 0); fill: none; stroke-width: 1px; marker-end: url(&quot;#arrowhead&quot;);"/><path id="edge-/Mul_1_output_0" class="edge-path" d="M17.0546875,483L17.0546875,484.6666666666667C17.0546875,486.3333333333333,17.0546875,489.6666666666667,17.0546875,493C17.0546875,496.3333333333333,17.0546875,499.6666666666667,17.0546875,501.3333333333333L17.0546875,503" style="stroke: rgb(0, 0, 0); fill: none; stroke-width: 1px; marker-end: url(&quot;#arrowhead&quot;);"/><path id="edge-out" class="edge-path" d="M17.0546875,523L17.0546875,526.4166666666666C17.0546875,529.8333333333334,17.0546875,536.6666666666666,17.0546875,543.5C17.0546875,550.3333333333334,17.0546875,557.1666666666666,17.0546875,560.5833333333334L17.0546875,564" style="stroke: rgb(0, 0, 0); fill: none; stroke-width: 1px; marker-end: url(&quot;#arrowhead&quot;);"/><path id="edge-/Reshape_2_output_0" class="edge-path" d="M110.2127685546875,483L110.2127685546875,484.6666666666667C110.2127685546875,486.3333333333333,110.2127685546875,489.6666666666667,110.2127685546875,493C110.2127685546875,496.3333333333333,110.2127685546875,499.6666666666667,110.2127685546875,501.3333333333333L110.2127685546875,503" style="stroke: rgb(0, 0, 0); fill: none; stroke-width: 1px; marker-end: url(&quot;#arrowhead&quot;);"/><path id="edge-memory.actions.out" class="edge-path" d="M110.2127685546875,523L110.2127685546875,526.4166666666666C110.2127685546875,529.8333333333334,110.2127685546875,536.6666666666666,110.2127685546875,543.5C110.2127685546875,550.3333333333334,110.2127685546875,557.1666666666666,110.2127685546875,560.5833333333334L110.2127685546875,564" style="stroke: rgb(0, 0, 0); fill: none; stroke-width: 1px; marker-end: url(&quot;#arrowhead&quot;);"/></g><g id="edge-paths-hit-test" class="edge-paths-hit-test" style="pointer-events: stroke; stroke-width: 0.5em; fill: none; stroke: rgb(0, 0, 0); stroke-opacity: 0.001;"><path d="M165.31281280517578,20L165.31281280517578,21.666666666666668C165.31281280517578,23.333333333333332,165.31281280517578,26.666666666666668,165.31281280517578,30C165.31281280517578,33.333333333333336,165.31281280517578,36.666666666666664,165.31281280517578,38.333333333333336L165.31281280517578,40" style="stroke: rgb(51, 51, 51); fill: none; stroke-width: 1px;"/><path d="M165.31281280517578,60L165.31281280517578,61.666666666666664C165.31281280517578,63.333333333333336,165.31281280517578,66.66666666666667,167.80011749267578,70C170.28742218017578,73.33333333333333,175.26203155517578,76.66666666666667,177.74933624267578,78.33333333333333L180.23664093017578,80" style="stroke: rgb(51, 51, 51); fill: none; stroke-width: 1px;"/><path d="M233.57508850097656,20L233.57508850097656,21.666666666666668C233.57508850097656,23.333333333333332,233.57508850097656,26.666666666666668,233.57508850097656,30C233.57508850097656,33.333333333333336,233.57508850097656,36.666666666666664,233.57508850097656,38.333333333333336L233.57508850097656,40" style="stroke: rgb(51, 51, 51); fill: none; stroke-width: 1px;"/><path d="M233.57508850097656,60L233.57508850097656,61.666666666666664C233.57508850097656,63.333333333333336,233.57508850097656,66.66666666666667,230.3738702138265,70C227.17265192667642,73.33333333333333,220.7702153523763,76.66666666666667,217.56899706522623,78.33333333333333L214.36777877807617,80" style="stroke: rgb(51, 51, 51); fill: none; stroke-width: 1px;"/><path d="M183.60564097420115,100L179.65774137986816,103.41666666666667C175.70984178553513,106.83333333333333,167.81404259686914,113.66666666666667,163.86614300253612,120.5C159.91824340820312,127.33333333333333,159.91824340820312,134.16666666666666,159.91824340820312,137.58333333333334L159.91824340820312,141" style="stroke: rgb(51, 51, 51); fill: none; stroke-width: 1px;"/><path d="M206.7152971361504,100L210.6631967304834,103.41666666666667C214.61109632481643,106.83333333333333,222.50689551348242,113.66666666666667,226.45479510781544,120.5C230.40269470214844,127.33333333333333,230.40269470214844,134.16666666666666,230.40269470214844,137.58333333333334L230.40269470214844,141" style="stroke: rgb(51, 51, 51); fill: none; stroke-width: 1px;"/><path d="M159.91824340820312,161L159.91824340820312,162.66666666666666C159.91824340820312,164.33333333333334,159.91824340820312,167.66666666666666,175.56698354085287,172.06315549818495C191.2157236735026,176.45964432970322,222.5132039388021,181.91928865940645,238.1619440714518,184.64911082425803L253.81068420410156,187.37893298910964" style="stroke: rgb(51, 51, 51); fill: none; stroke-width: 1px;"/><path d="M301.3415298461914,60L301.3415298461914,61.666666666666664C301.3415298461914,63.333333333333336,301.3415298461914,66.66666666666667,301.3415298461914,70C301.3415298461914,73.33333333333333,301.3415298461914,76.66666666666667,301.3415298461914,78.33333333333333L301.3415298461914,80" style="stroke: rgb(51, 51, 51); fill: none; stroke-width: 1px;"/><path d="M301.3415298461914,100L301.3415298461914,103.41666666666667C301.3415298461914,106.83333333333333,301.3415298461914,113.66666666666667,301.3415298461914,120.5C301.3415298461914,127.33333333333333,301.3415298461914,134.16666666666666,301.3415298461914,137.58333333333334L301.3415298461914,141" style="stroke: rgb(51, 51, 51); fill: none; stroke-width: 1px;"/><path d="M301.3415298461914,161L301.3415298461914,162.66666666666666C301.3415298461914,164.33333333333334,301.3415298461914,167.66666666666666,299.11044375101727,171C296.8793576558431,174.33333333333334,292.4171854654948,177.66666666666666,290.1860993703206,179.33333333333334L287.9550132751465,181" style="stroke: rgb(51, 51, 51); fill: none; stroke-width: 1px;"/><path d="M387.1872024536133,60L387.1872024536133,61.666666666666664C387.1872024536133,63.333333333333336,387.1872024536133,66.66666666666667,387.1872024536133,70C387.1872024536133,73.33333333333333,387.1872024536133,76.66666666666667,387.1872024536133,78.33333333333333L387.1872024536133,80" style="stroke: rgb(51, 51, 51); fill: none; stroke-width: 1px;"/><path d="M387.1872024536133,100L387.1872024536133,103.41666666666667C387.1872024536133,106.83333333333333,387.1872024536133,113.66666666666667,387.1872024536133,120.5C387.1872024536133,127.33333333333333,387.1872024536133,134.16666666666666,387.1872024536133,137.58333333333334L387.1872024536133,141" style="stroke: rgb(51, 51, 51); fill: none; stroke-width: 1px;"/><path d="M387.1872024536133,161L387.1872024536133,162.66666666666666C387.1872024536133,164.33333333333334,387.1872024536133,167.66666666666666,371.87705357869464,172.05226865993382C356.56690470377606,176.43787065320097,325.9466069539388,181.87574130640192,310.6364580790202,184.59467663300242L295.32630920410156,187.3136119596029" style="stroke: rgb(51, 51, 51); fill: none; stroke-width: 1px;"/><path d="M253.81068420410156,194.63206772507004L228.21830622355142,199.11005643755837C202.6259282430013,203.5880451500467,151.44117228190103,212.54402257502338,125.8487943013509,220.43867795417836C100.25641632080078,228.33333333333334,100.25641632080078,235.16666666666666,100.25641632080078,238.58333333333334L100.25641632080078,242" style="stroke: rgb(51, 51, 51); fill: none; stroke-width: 1px;"/><path d="M263.83254529609053,201L260.1644285650201,204.41666666666666C256.4963118339497,207.83333333333334,249.16007837180882,214.66666666666666,245.4919616407384,221.5C241.82384490966797,228.33333333333334,241.82384490966797,235.16666666666666,241.82384490966797,238.58333333333334L241.82384490966797,242" style="stroke: rgb(51, 51, 51); fill: none; stroke-width: 1px;"/><path d="M295.32630920410156,194.63206772507004L320.9186871846517,199.11005643755837C346.51106516520184,203.5880451500467,397.69582112630206,212.54402257502338,423.28819910685223,220.43867795417836C448.88057708740234,228.33333333333334,448.88057708740234,235.16666666666666,448.88057708740234,238.58333333333334L448.88057708740234,242" style="stroke: rgb(51, 51, 51); fill: none; stroke-width: 1px;"/><path d="M100.25641632080078,262L100.25641632080078,263.6666666666667C100.25641632080078,265.3333333333333,100.25641632080078,268.6666666666667,100.25641632080078,272C100.25641632080078,275.3333333333333,100.25641632080078,278.6666666666667,100.25641632080078,280.3333333333333L100.25641632080078,282" style="stroke: rgb(51, 51, 51); fill: none; stroke-width: 1px;"/><path d="M100.25641632080078,302L100.25641632080078,303.6666666666667C100.25641632080078,305.3333333333333,100.25641632080078,308.6666666666667,100.25641632080078,312C100.25641632080078,315.3333333333333,100.25641632080078,318.6666666666667,100.25641632080078,320.3333333333333L100.25641632080078,322" style="stroke: rgb(51, 51, 51); fill: none; stroke-width: 1px;"/><path d="M100.25641632080078,342L100.25641632080078,343.6666666666667C100.25641632080078,345.3333333333333,100.25641632080078,348.6666666666667,100.25641632080078,352C100.25641632080078,355.3333333333333,100.25641632080078,358.6666666666667,100.25641632080078,360.3333333333333L100.25641632080078,362" style="stroke: rgb(51, 51, 51); fill: none; stroke-width: 1px;"/><path d="M100.25641632080078,382L100.25641632080078,383.6666666666667C100.25641632080078,385.3333333333333,100.25641632080078,388.6666666666667,100.25641632080078,392C100.25641632080078,395.3333333333333,100.25641632080078,398.6666666666667,100.25641632080078,400.3333333333333L100.25641632080078,402" style="stroke: rgb(51, 51, 51); fill: none; stroke-width: 1px;"/><path d="M72.97716096971855,422L63.656748724765464,425.4166666666667C54.33633647981237,428.8333333333333,35.69551198990619,435.6666666666667,26.375099744953094,442.5C17.0546875,449.3333333333333,17.0546875,456.1666666666667,17.0546875,459.5833333333333L17.0546875,463" style="stroke: rgb(51, 51, 51); fill: none; stroke-width: 1px;"/><path d="M103.52079410240299,422L104.63612317778374,425.4166666666667C105.75145225316449,428.8333333333333,107.982110403926,435.6666666666667,109.09743947930674,442.5C110.2127685546875,449.3333333333333,110.2127685546875,456.1666666666667,110.2127685546875,459.5833333333333L110.2127685546875,463" style="stroke: rgb(51, 51, 51); fill: none; stroke-width: 1px;"/><path d="M127.53567167188301,422L136.8560839168361,425.4166666666667C146.17649616178917,428.8333333333333,164.81732065169538,435.6666666666667,174.13773289664846,442.5C183.45814514160156,449.3333333333333,183.45814514160156,456.1666666666667,183.45814514160156,459.5833333333333L183.45814514160156,463" style="stroke: rgb(51, 51, 51); fill: none; stroke-width: 1px;"/><path d="M17.0546875,483L17.0546875,484.6666666666667C17.0546875,486.3333333333333,17.0546875,489.6666666666667,17.0546875,493C17.0546875,496.3333333333333,17.0546875,499.6666666666667,17.0546875,501.3333333333333L17.0546875,503" style="stroke: rgb(51, 51, 51); fill: none; stroke-width: 1px;"/><path d="M17.0546875,523L17.0546875,526.4166666666666C17.0546875,529.8333333333334,17.0546875,536.6666666666666,17.0546875,543.5C17.0546875,550.3333333333334,17.0546875,557.1666666666666,17.0546875,560.5833333333334L17.0546875,564" style="stroke: rgb(51, 51, 51); fill: none; stroke-width: 1px;"/><path d="M110.2127685546875,483L110.2127685546875,484.6666666666667C110.2127685546875,486.3333333333333,110.2127685546875,489.6666666666667,110.2127685546875,493C110.2127685546875,496.3333333333333,110.2127685546875,499.6666666666667,110.2127685546875,501.3333333333333L110.2127685546875,503" style="stroke: rgb(51, 51, 51); fill: none; stroke-width: 1px;"/><path d="M110.2127685546875,523L110.2127685546875,526.4166666666666C110.2127685546875,529.8333333333334,110.2127685546875,536.6666666666666,110.2127685546875,543.5C110.2127685546875,550.3333333333334,110.2127685546875,557.1666666666666,110.2127685546875,560.5833333333334L110.2127685546875,564" style="stroke: rgb(51, 51, 51); fill: none; stroke-width: 1px;"/></g><g id="edge-labels" class="edge-labels"><text class="edge-label" id="edge-label-edge-obs" transform="translate(164.91824340820312,115)" style="opacity: 1; font-family: -apple-system, BlinkMacSystemFont, &quot;Segoe WPC&quot;, &quot;Segoe UI&quot;, Ubuntu, &quot;Droid Sans&quot;, sans-serif, &quot;PingFang SC&quot;; font-size: 10px;"><tspan xml:space="preserve" dy="1em" x="1">1×10</tspan></text><text class="edge-label" id="edge-label-edge-obs" transform="translate(235.40269470214844,115)" style="opacity: 1; font-family: -apple-system, BlinkMacSystemFont, &quot;Segoe WPC&quot;, &quot;Segoe UI&quot;, Ubuntu, &quot;Droid Sans&quot;, sans-serif, &quot;PingFang SC&quot;; font-size: 10px;"><tspan xml:space="preserve" dy="1em" x="1">1×10</tspan></text><text class="edge-label" id="edge-label-edge-memory.actor_hidden_state_0.out" transform="translate(246.82384490966797,216)" style="opacity: 1; font-family: -apple-system, BlinkMacSystemFont, &quot;Segoe WPC&quot;, &quot;Segoe UI&quot;, Ubuntu, &quot;Droid Sans&quot;, sans-serif, &quot;PingFang SC&quot;; font-size: 10px;"><tspan xml:space="preserve" dy="1em" x="1">1×1×5</tspan></text><text class="edge-label" id="edge-label-edge-memory.actor_hidden_state_1.out" transform="translate(453.88057708740234,216)" style="opacity: 1; font-family: -apple-system, BlinkMacSystemFont, &quot;Segoe WPC&quot;, &quot;Segoe UI&quot;, Ubuntu, &quot;Droid Sans&quot;, sans-serif, &quot;PingFang SC&quot;; font-size: 10px;"><tspan xml:space="preserve" dy="1em" x="1">1×1×5</tspan></text><text class="edge-label" id="edge-label-edge-actions" transform="translate(22.0546875,437)" style="opacity: 1; font-family: -apple-system, BlinkMacSystemFont, &quot;Segoe WPC&quot;, &quot;Segoe UI&quot;, Ubuntu, &quot;Droid Sans&quot;, sans-serif, &quot;PingFang SC&quot;; font-size: 10px;"><tspan xml:space="preserve" dy="1em" x="1">1×2</tspan></text><text class="edge-label" id="edge-label-edge-actions" transform="translate(115.2127685546875,437)" style="opacity: 1; font-family: -apple-system, BlinkMacSystemFont, &quot;Segoe WPC&quot;, &quot;Segoe UI&quot;, Ubuntu, &quot;Droid Sans&quot;, sans-serif, &quot;PingFang SC&quot;; font-size: 10px;"><tspan xml:space="preserve" dy="1em" x="1">1×2</tspan></text><text class="edge-label" id="edge-label-edge-actions" transform="translate(188.45814514160156,437)" style="opacity: 1; font-family: -apple-system, BlinkMacSystemFont, &quot;Segoe WPC&quot;, &quot;Segoe UI&quot;, Ubuntu, &quot;Droid Sans&quot;, sans-serif, &quot;PingFang SC&quot;; font-size: 10px;"><tspan xml:space="preserve" dy="1em" x="1">1×2</tspan></text><text class="edge-label" id="edge-label-edge-out" transform="translate(22.0546875,538)" style="opacity: 1; font-family: -apple-system, BlinkMacSystemFont, &quot;Segoe WPC&quot;, &quot;Segoe UI&quot;, Ubuntu, &quot;Droid Sans&quot;, sans-serif, &quot;PingFang SC&quot;; font-size: 10px;"><tspan xml:space="preserve" dy="1em" x="1">1×2</tspan></text><text class="edge-label" id="edge-label-edge-memory.actions.out" transform="translate(115.2127685546875,538)" style="opacity: 1; font-family: -apple-system, BlinkMacSystemFont, &quot;Segoe WPC&quot;, &quot;Segoe UI&quot;, Ubuntu, &quot;Droid Sans&quot;, sans-serif, &quot;PingFang SC&quot;; font-size: 10px;"><tspan xml:space="preserve" dy="1em" x="1">1×2</tspan></text></g><g id="nodes" class="nodes"><g id="node-name-/Mul" class="node graph-node" transform="translate(148.85968780517578,0)" style=""><g class="node-item node-item-type" transform="translate(0,0)"><path d="M5,0h22.90625a5,5 0 0 1 5,5v10a5,5 0 0 1 -5,5h-22.90625a5,5 0 0 1 -5,-5v-10a5,5 0 0 1 5,-5z" style="stroke: rgb(0, 0, 0); fill: rgb(51, 51, 51); stroke-width: 0;"/><text x="6" y="13" style="font-family: -apple-system, BlinkMacSystemFont, &quot;Segoe WPC&quot;, &quot;Segoe UI&quot;, Ubuntu, &quot;Droid Sans&quot;, sans-serif, &quot;PingFang SC&quot;; font-size: 11px; text-rendering: geometricprecision; user-select: none; fill: rgb(255, 255, 255);">Mul</text><title>/Mul</title></g><path class="node node-border" d="M5,0h22.90625a5,5 0 0 1 5,5v10a5,5 0 0 1 -5,5h-22.90625a5,5 0 0 1 -5,-5v-10a5,5 0 0 1 5,-5z" style="stroke: rgb(51, 51, 51); fill: none; stroke-width: 1px;"/></g><g id="node-name-/Add_1" class="node graph-node" transform="translate(148.25812530517578,40)" style=""><g class="node-item node-item-type" transform="translate(0,0)"><path d="M5,0h24.109375a5,5 0 0 1 5,5v10a5,5 0 0 1 -5,5h-24.109375a5,5 0 0 1 -5,-5v-10a5,5 0 0 1 5,-5z" style="stroke: rgb(0, 0, 0); fill: rgb(51, 51, 51); stroke-width: 0;"/><text x="6" y="13" style="font-family: -apple-system, BlinkMacSystemFont, &quot;Segoe WPC&quot;, &quot;Segoe UI&quot;, Ubuntu, &quot;Droid Sans&quot;, sans-serif, &quot;PingFang SC&quot;; font-size: 11px; text-rendering: geometricprecision; user-select: none; fill: rgb(255, 255, 255);">Add</text><title>/Add_1</title></g><path class="node node-border" d="M5,0h24.109375a5,5 0 0 1 5,5v10a5,5 0 0 1 -5,5h-24.109375a5,5 0 0 1 -5,-5v-10a5,5 0 0 1 5,-5z" style="stroke: rgb(51, 51, 51); fill: none; stroke-width: 1px;"/></g><g id="node-name-/exporter_registered_module_0/Gemm" class="node graph-node" transform="translate(210.33290100097656,0)" style=""><g class="node-item node-item-type node-item-type-layer" transform="translate(0,0)"><path d="M5,0h36.484375a5,5 0 0 1 5,5v10a5,5 0 0 1 -5,5h-36.484375a5,5 0 0 1 -5,-5v-10a5,5 0 0 1 5,-5z" style="stroke: rgb(0, 0, 0); fill: rgb(51, 85, 136); stroke-width: 0;"/><text x="6" y="13" style="font-family: -apple-system, BlinkMacSystemFont, &quot;Segoe WPC&quot;, &quot;Segoe UI&quot;, Ubuntu, &quot;Droid Sans&quot;, sans-serif, &quot;PingFang SC&quot;; font-size: 11px; text-rendering: geometricprecision; user-select: none; fill: rgb(255, 255, 255);">Gemm</text><title>/exporter_registered_module_0/Gemm</title></g><path class="node node-border" d="M5,0h36.484375a5,5 0 0 1 5,5v10a5,5 0 0 1 -5,5h-36.484375a5,5 0 0 1 -5,-5v-10a5,5 0 0 1 5,-5z" style="stroke: rgb(51, 51, 51); fill: none; stroke-width: 1px;"/></g><g id="node-name-/Add" class="node graph-node" transform="translate(216.52040100097656,40)" style=""><g class="node-item node-item-type" transform="translate(0,0)"><path d="M5,0h24.109375a5,5 0 0 1 5,5v10a5,5 0 0 1 -5,5h-24.109375a5,5 0 0 1 -5,-5v-10a5,5 0 0 1 5,-5z" style="stroke: rgb(0, 0, 0); fill: rgb(51, 51, 51); stroke-width: 0;"/><text x="6" y="13" style="font-family: -apple-system, BlinkMacSystemFont, &quot;Segoe WPC&quot;, &quot;Segoe UI&quot;, Ubuntu, &quot;Droid Sans&quot;, sans-serif, &quot;PingFang SC&quot;; font-size: 11px; text-rendering: geometricprecision; user-select: none; fill: rgb(255, 255, 255);">Add</text><title>/Add</title></g><path class="node node-border" d="M5,0h24.109375a5,5 0 0 1 5,5v10a5,5 0 0 1 -5,5h-24.109375a5,5 0 0 1 -5,-5v-10a5,5 0 0 1 5,-5z" style="stroke: rgb(51, 51, 51); fill: none; stroke-width: 1px;"/></g><g id="node-name-/Concat_2" class="node graph-node" transform="translate(170.5025863647461,80)" style=""><g class="node-item node-item-type node-item-type-tensor" transform="translate(0,0)"><path d="M5,0h39.315765380859375a5,5 0 0 1 5,5v10a5,5 0 0 1 -5,5h-39.315765380859375a5,5 0 0 1 -5,-5v-10a5,5 0 0 1 5,-5z" style="stroke: rgb(0, 0, 0); fill: rgb(89, 66, 59); stroke-width: 0;"/><text x="6" y="13" style="font-family: -apple-system, BlinkMacSystemFont, &quot;Segoe WPC&quot;, &quot;Segoe UI&quot;, Ubuntu, &quot;Droid Sans&quot;, sans-serif, &quot;PingFang SC&quot;; font-size: 11px; text-rendering: geometricprecision; user-select: none; fill: rgb(255, 255, 255);">Concat</text><title>/Concat_2</title></g><path class="node node-border" d="M5,0h39.315765380859375a5,5 0 0 1 5,5v10a5,5 0 0 1 -5,5h-39.315765380859375a5,5 0 0 1 -5,-5v-10a5,5 0 0 1 5,-5z" style="stroke: rgb(51, 51, 51); fill: none; stroke-width: 1px;"/></g><g id="node-name-/actor/Unsqueeze" class="node graph-node" transform="translate(125.41824340820312,141)" style=""><g class="node-item node-item-type node-item-type-transform" transform="translate(0,0)"><path d="M5,0h59a5,5 0 0 1 5,5v10a5,5 0 0 1 -5,5h-59a5,5 0 0 1 -5,-5v-10a5,5 0 0 1 5,-5z" style="stroke: rgb(0, 0, 0); fill: rgb(51, 85, 68); stroke-width: 0;"/><text x="6" y="13" style="font-family: -apple-system, BlinkMacSystemFont, &quot;Segoe WPC&quot;, &quot;Segoe UI&quot;, Ubuntu, &quot;Droid Sans&quot;, sans-serif, &quot;PingFang SC&quot;; font-size: 11px; text-rendering: geometricprecision; user-select: none; fill: rgb(255, 255, 255);">Unsqueeze</text><title>/actor/Unsqueeze</title></g><path class="node node-border" d="M5,0h59a5,5 0 0 1 5,5v10a5,5 0 0 1 -5,5h-59a5,5 0 0 1 -5,-5v-10a5,5 0 0 1 5,-5z" style="stroke: rgb(51, 51, 51); fill: none; stroke-width: 1px;"/></g><g id="node-name-/Expand_1" class="node graph-node" transform="translate(275.8337173461914,40)" style=""><g class="node-item node-item-type" transform="translate(0,0)"><path d="M5,0h41.015625a5,5 0 0 1 5,5v10a5,5 0 0 1 -5,5h-41.015625a5,5 0 0 1 -5,-5v-10a5,5 0 0 1 5,-5z" style="stroke: rgb(0, 0, 0); fill: rgb(51, 51, 51); stroke-width: 0;"/><text x="6" y="13" style="font-family: -apple-system, BlinkMacSystemFont, &quot;Segoe WPC&quot;, &quot;Segoe UI&quot;, Ubuntu, &quot;Droid Sans&quot;, sans-serif, &quot;PingFang SC&quot;; font-size: 11px; text-rendering: geometricprecision; user-select: none; fill: rgb(255, 255, 255);">Expand</text><title>/Expand_1</title></g><path class="node node-border" d="M5,0h41.015625a5,5 0 0 1 5,5v10a5,5 0 0 1 -5,5h-41.015625a5,5 0 0 1 -5,-5v-10a5,5 0 0 1 5,-5z" style="stroke: rgb(51, 51, 51); fill: none; stroke-width: 1px;"/></g><g id="node-name-/Reshape_1" class="node graph-node" transform="translate(273.0290298461914,80)" style=""><g class="node-item node-item-type node-item-type-shape" transform="translate(0,0)"><path d="M5,0h46.625a5,5 0 0 1 5,5v10a5,5 0 0 1 -5,5h-46.625a5,5 0 0 1 -5,-5v-10a5,5 0 0 1 5,-5z" style="stroke: rgb(0, 0, 0); fill: rgb(108, 79, 71); stroke-width: 0;"/><text x="6" y="13" style="font-family: -apple-system, BlinkMacSystemFont, &quot;Segoe WPC&quot;, &quot;Segoe UI&quot;, Ubuntu, &quot;Droid Sans&quot;, sans-serif, &quot;PingFang SC&quot;; font-size: 11px; text-rendering: geometricprecision; user-select: none; fill: rgb(255, 255, 255);">Reshape</text><title>/Reshape_1</title></g><path class="node node-border" d="M5,0h46.625a5,5 0 0 1 5,5v10a5,5 0 0 1 -5,5h-46.625a5,5 0 0 1 -5,-5v-10a5,5 0 0 1 5,-5z" style="stroke: rgb(51, 51, 51); fill: none; stroke-width: 1px;"/></g><g id="node-name-/ScatterND_1" class="node graph-node" transform="translate(268.41869354248047,141)" style=""><g class="node-item node-item-type" transform="translate(0,0)"><path d="M5,0h55.845672607421875a5,5 0 0 1 5,5v10a5,5 0 0 1 -5,5h-55.845672607421875a5,5 0 0 1 -5,-5v-10a5,5 0 0 1 5,-5z" style="stroke: rgb(0, 0, 0); fill: rgb(51, 51, 51); stroke-width: 0;"/><text x="6" y="13" style="font-family: -apple-system, BlinkMacSystemFont, &quot;Segoe WPC&quot;, &quot;Segoe UI&quot;, Ubuntu, &quot;Droid Sans&quot;, sans-serif, &quot;PingFang SC&quot;; font-size: 11px; text-rendering: geometricprecision; user-select: none; fill: rgb(255, 255, 255);">ScatterND</text><title>/ScatterND_1</title></g><path class="node node-border" d="M5,0h55.845672607421875a5,5 0 0 1 5,5v10a5,5 0 0 1 -5,5h-55.845672607421875a5,5 0 0 1 -5,-5v-10a5,5 0 0 1 5,-5z" style="stroke: rgb(51, 51, 51); fill: none; stroke-width: 1px;"/></g><g id="node-name-/Expand" class="node graph-node" transform="translate(361.6793899536133,40)" style=""><g class="node-item node-item-type" transform="translate(0,0)"><path d="M5,0h41.015625a5,5 0 0 1 5,5v10a5,5 0 0 1 -5,5h-41.015625a5,5 0 0 1 -5,-5v-10a5,5 0 0 1 5,-5z" style="stroke: rgb(0, 0, 0); fill: rgb(51, 51, 51); stroke-width: 0;"/><text x="6" y="13" style="font-family: -apple-system, BlinkMacSystemFont, &quot;Segoe WPC&quot;, &quot;Segoe UI&quot;, Ubuntu, &quot;Droid Sans&quot;, sans-serif, &quot;PingFang SC&quot;; font-size: 11px; text-rendering: geometricprecision; user-select: none; fill: rgb(255, 255, 255);">Expand</text><title>/Expand</title></g><path class="node node-border" d="M5,0h41.015625a5,5 0 0 1 5,5v10a5,5 0 0 1 -5,5h-41.015625a5,5 0 0 1 -5,-5v-10a5,5 0 0 1 5,-5z" style="stroke: rgb(51, 51, 51); fill: none; stroke-width: 1px;"/></g><g id="node-name-/Reshape" class="node graph-node" transform="translate(358.8747024536133,80)" style=""><g class="node-item node-item-type node-item-type-shape" transform="translate(0,0)"><path d="M5,0h46.625a5,5 0 0 1 5,5v10a5,5 0 0 1 -5,5h-46.625a5,5 0 0 1 -5,-5v-10a5,5 0 0 1 5,-5z" style="stroke: rgb(0, 0, 0); fill: rgb(108, 79, 71); stroke-width: 0;"/><text x="6" y="13" style="font-family: -apple-system, BlinkMacSystemFont, &quot;Segoe WPC&quot;, &quot;Segoe UI&quot;, Ubuntu, &quot;Droid Sans&quot;, sans-serif, &quot;PingFang SC&quot;; font-size: 11px; text-rendering: geometricprecision; user-select: none; fill: rgb(255, 255, 255);">Reshape</text><title>/Reshape</title></g><path class="node node-border" d="M5,0h46.625a5,5 0 0 1 5,5v10a5,5 0 0 1 -5,5h-46.625a5,5 0 0 1 -5,-5v-10a5,5 0 0 1 5,-5z" style="stroke: rgb(51, 51, 51); fill: none; stroke-width: 1px;"/></g><g id="node-name-/ScatterND" class="node graph-node" transform="translate(354.26436614990234,141)" style=""><g class="node-item node-item-type" transform="translate(0,0)"><path d="M5,0h55.845672607421875a5,5 0 0 1 5,5v10a5,5 0 0 1 -5,5h-55.845672607421875a5,5 0 0 1 -5,-5v-10a5,5 0 0 1 5,-5z" style="stroke: rgb(0, 0, 0); fill: rgb(51, 51, 51); stroke-width: 0;"/><text x="6" y="13" style="font-family: -apple-system, BlinkMacSystemFont, &quot;Segoe WPC&quot;, &quot;Segoe UI&quot;, Ubuntu, &quot;Droid Sans&quot;, sans-serif, &quot;PingFang SC&quot;; font-size: 11px; text-rendering: geometricprecision; user-select: none; fill: rgb(255, 255, 255);">ScatterND</text><title>/ScatterND</title></g><path class="node node-border" d="M5,0h55.845672607421875a5,5 0 0 1 5,5v10a5,5 0 0 1 -5,5h-55.845672607421875a5,5 0 0 1 -5,-5v-10a5,5 0 0 1 5,-5z" style="stroke: rgb(51, 51, 51); fill: none; stroke-width: 1px;"/></g><g id="node-name-/actor/_rnn/LSTM" class="node graph-node" transform="translate(253.81068420410156,181)" style=""><g class="node-item node-item-type node-item-type-layer" transform="translate(0,0)"><path d="M5,0h31.515625a5,5 0 0 1 5,5v10a5,5 0 0 1 -5,5h-31.515625a5,5 0 0 1 -5,-5v-10a5,5 0 0 1 5,-5z" style="stroke: rgb(0, 0, 0); fill: rgb(51, 85, 136); stroke-width: 0;"/><text x="6" y="13" style="font-family: -apple-system, BlinkMacSystemFont, &quot;Segoe WPC&quot;, &quot;Segoe UI&quot;, Ubuntu, &quot;Droid Sans&quot;, sans-serif, &quot;PingFang SC&quot;; font-size: 11px; text-rendering: geometricprecision; user-select: none; fill: rgb(255, 255, 255);">LSTM</text><title>/actor/_rnn/LSTM</title></g><path class="node node-border" d="M5,0h31.515625a5,5 0 0 1 5,5v10a5,5 0 0 1 -5,5h-31.515625a5,5 0 0 1 -5,-5v-10a5,5 0 0 1 5,-5z" style="stroke: rgb(51, 51, 51); fill: none; stroke-width: 1px;"/></g><g id="node-name-/actor/_rnn/Squeeze" class="node graph-node" transform="translate(72.21735382080078,242)" style=""><g class="node-item node-item-type node-item-type-transform" transform="translate(0,0)"><path d="M5,0h46.078125a5,5 0 0 1 5,5v10a5,5 0 0 1 -5,5h-46.078125a5,5 0 0 1 -5,-5v-10a5,5 0 0 1 5,-5z" style="stroke: rgb(0, 0, 0); fill: rgb(51, 85, 68); stroke-width: 0;"/><text x="6" y="13" style="font-family: -apple-system, BlinkMacSystemFont, &quot;Segoe WPC&quot;, &quot;Segoe UI&quot;, Ubuntu, &quot;Droid Sans&quot;, sans-serif, &quot;PingFang SC&quot;; font-size: 11px; text-rendering: geometricprecision; user-select: none; fill: rgb(255, 255, 255);">Squeeze</text><title>/actor/_rnn/Squeeze</title></g><path class="node node-border" d="M5,0h46.078125a5,5 0 0 1 5,5v10a5,5 0 0 1 -5,5h-46.078125a5,5 0 0 1 -5,-5v-10a5,5 0 0 1 5,-5z" style="stroke: rgb(51, 51, 51); fill: none; stroke-width: 1px;"/></g><g id="node-name-/actor/Squeeze" class="node graph-node" transform="translate(72.21735382080078,282)" style=""><g class="node-item node-item-type node-item-type-transform" transform="translate(0,0)"><path d="M5,0h46.078125a5,5 0 0 1 5,5v10a5,5 0 0 1 -5,5h-46.078125a5,5 0 0 1 -5,-5v-10a5,5 0 0 1 5,-5z" style="stroke: rgb(0, 0, 0); fill: rgb(51, 85, 68); stroke-width: 0;"/><text x="6" y="13" style="font-family: -apple-system, BlinkMacSystemFont, &quot;Segoe WPC&quot;, &quot;Segoe UI&quot;, Ubuntu, &quot;Droid Sans&quot;, sans-serif, &quot;PingFang SC&quot;; font-size: 11px; text-rendering: geometricprecision; user-select: none; fill: rgb(255, 255, 255);">Squeeze</text><title>/actor/Squeeze</title></g><path class="node node-border" d="M5,0h46.078125a5,5 0 0 1 5,5v10a5,5 0 0 1 -5,5h-46.078125a5,5 0 0 1 -5,-5v-10a5,5 0 0 1 5,-5z" style="stroke: rgb(51, 51, 51); fill: none; stroke-width: 1px;"/></g><g id="node-name-fused /actor/_net/_net/_net.0/Gemm" class="node graph-node" transform="translate(62.27204132080078,322)" style=""><g class="node-item node-item-type" transform="translate(0,0)"><path d="M5,0h65.96875a5,5 0 0 1 5,5v10a5,5 0 0 1 -5,5h-65.96875a5,5 0 0 1 -5,-5v-10a5,5 0 0 1 5,-5z" style="stroke: rgb(0, 0, 0); fill: rgb(51, 51, 51); stroke-width: 0;"/><text x="6" y="13" style="font-family: -apple-system, BlinkMacSystemFont, &quot;Segoe WPC&quot;, &quot;Segoe UI&quot;, Ubuntu, &quot;Droid Sans&quot;, sans-serif, &quot;PingFang SC&quot;; font-size: 11px; text-rendering: geometricprecision; user-select: none; fill: rgb(255, 255, 255);">FusedGemm</text><title>fused /actor/_net/_net/_net.0/Gemm</title></g><path class="node node-border" d="M5,0h65.96875a5,5 0 0 1 5,5v10a5,5 0 0 1 -5,5h-65.96875a5,5 0 0 1 -5,-5v-10a5,5 0 0 1 5,-5z" style="stroke: rgb(51, 51, 51); fill: none; stroke-width: 1px;"/></g><g id="node-name-fused /actor/_net/_net/_net.2/Gemm" class="node graph-node" transform="translate(62.27204132080078,362)" style=""><g class="node-item node-item-type" transform="translate(0,0)"><path d="M5,0h65.96875a5,5 0 0 1 5,5v10a5,5 0 0 1 -5,5h-65.96875a5,5 0 0 1 -5,-5v-10a5,5 0 0 1 5,-5z" style="stroke: rgb(0, 0, 0); fill: rgb(51, 51, 51); stroke-width: 0;"/><text x="6" y="13" style="font-family: -apple-system, BlinkMacSystemFont, &quot;Segoe WPC&quot;, &quot;Segoe UI&quot;, Ubuntu, &quot;Droid Sans&quot;, sans-serif, &quot;PingFang SC&quot;; font-size: 11px; text-rendering: geometricprecision; user-select: none; fill: rgb(255, 255, 255);">FusedGemm</text><title>fused /actor/_net/_net/_net.2/Gemm</title></g><path class="node node-border" d="M5,0h65.96875a5,5 0 0 1 5,5v10a5,5 0 0 1 -5,5h-65.96875a5,5 0 0 1 -5,-5v-10a5,5 0 0 1 5,-5z" style="stroke: rgb(51, 51, 51); fill: none; stroke-width: 1px;"/></g><g id="node-name-fused /actor/_net/_net/_net.4/Gemm" class="node graph-node" transform="translate(62.27204132080078,402)" style=""><g class="node-item node-item-type" transform="translate(0,0)"><path d="M5,0h65.96875a5,5 0 0 1 5,5v10a5,5 0 0 1 -5,5h-65.96875a5,5 0 0 1 -5,-5v-10a5,5 0 0 1 5,-5z" style="stroke: rgb(0, 0, 0); fill: rgb(51, 51, 51); stroke-width: 0;"/><text x="6" y="13" style="font-family: -apple-system, BlinkMacSystemFont, &quot;Segoe WPC&quot;, &quot;Segoe UI&quot;, Ubuntu, &quot;Droid Sans&quot;, sans-serif, &quot;PingFang SC&quot;; font-size: 11px; text-rendering: geometricprecision; user-select: none; fill: rgb(255, 255, 255);">FusedGemm</text><title>fused /actor/_net/_net/_net.4/Gemm</title></g><path class="node node-border" d="M5,0h65.96875a5,5 0 0 1 5,5v10a5,5 0 0 1 -5,5h-65.96875a5,5 0 0 1 -5,-5v-10a5,5 0 0 1 5,-5z" style="stroke: rgb(51, 51, 51); fill: none; stroke-width: 1px;"/></g><g id="node-name-/Mul_1" class="node graph-node" transform="translate(0.6015625,463)" style=""><g class="node-item node-item-type" transform="translate(0,0)"><path d="M5,0h22.90625a5,5 0 0 1 5,5v10a5,5 0 0 1 -5,5h-22.90625a5,5 0 0 1 -5,-5v-10a5,5 0 0 1 5,-5z" style="stroke: rgb(0, 0, 0); fill: rgb(51, 51, 51); stroke-width: 0;"/><text x="6" y="13" style="font-family: -apple-system, BlinkMacSystemFont, &quot;Segoe WPC&quot;, &quot;Segoe UI&quot;, Ubuntu, &quot;Droid Sans&quot;, sans-serif, &quot;PingFang SC&quot;; font-size: 11px; text-rendering: geometricprecision; user-select: none; fill: rgb(255, 255, 255);">Mul</text><title>/Mul_1</title></g><path class="node node-border" d="M5,0h22.90625a5,5 0 0 1 5,5v10a5,5 0 0 1 -5,5h-22.90625a5,5 0 0 1 -5,-5v-10a5,5 0 0 1 5,-5z" style="stroke: rgb(51, 51, 51); fill: none; stroke-width: 1px;"/></g><g id="node-name-/Add_2" class="node graph-node" transform="translate(0,503)" style=""><g class="node-item node-item-type" transform="translate(0,0)"><path d="M5,0h24.109375a5,5 0 0 1 5,5v10a5,5 0 0 1 -5,5h-24.109375a5,5 0 0 1 -5,-5v-10a5,5 0 0 1 5,-5z" style="stroke: rgb(0, 0, 0); fill: rgb(51, 51, 51); stroke-width: 0;"/><text x="6" y="13" style="font-family: -apple-system, BlinkMacSystemFont, &quot;Segoe WPC&quot;, &quot;Segoe UI&quot;, Ubuntu, &quot;Droid Sans&quot;, sans-serif, &quot;PingFang SC&quot;; font-size: 11px; text-rendering: geometricprecision; user-select: none; fill: rgb(255, 255, 255);">Add</text><title>/Add_2</title></g><path class="node node-border" d="M5,0h24.109375a5,5 0 0 1 5,5v10a5,5 0 0 1 -5,5h-24.109375a5,5 0 0 1 -5,-5v-10a5,5 0 0 1 5,-5z" style="stroke: rgb(51, 51, 51); fill: none; stroke-width: 1px;"/></g><g id="node-name-/Reshape_2" class="node graph-node" transform="translate(81.9002685546875,463)" style=""><g class="node-item node-item-type node-item-type-shape" transform="translate(0,0)"><path d="M5,0h46.625a5,5 0 0 1 5,5v10a5,5 0 0 1 -5,5h-46.625a5,5 0 0 1 -5,-5v-10a5,5 0 0 1 5,-5z" style="stroke: rgb(0, 0, 0); fill: rgb(108, 79, 71); stroke-width: 0;"/><text x="6" y="13" style="font-family: -apple-system, BlinkMacSystemFont, &quot;Segoe WPC&quot;, &quot;Segoe UI&quot;, Ubuntu, &quot;Droid Sans&quot;, sans-serif, &quot;PingFang SC&quot;; font-size: 11px; text-rendering: geometricprecision; user-select: none; fill: rgb(255, 255, 255);">Reshape</text><title>/Reshape_2</title></g><path class="node node-border" d="M5,0h46.625a5,5 0 0 1 5,5v10a5,5 0 0 1 -5,5h-46.625a5,5 0 0 1 -5,-5v-10a5,5 0 0 1 5,-5z" style="stroke: rgb(51, 51, 51); fill: none; stroke-width: 1px;"/></g><g id="node-name-/ScatterND_2" class="node graph-node" transform="translate(77.28993225097656,503)" style=""><g class="node-item node-item-type" transform="translate(0,0)"><path d="M5,0h55.845672607421875a5,5 0 0 1 5,5v10a5,5 0 0 1 -5,5h-55.845672607421875a5,5 0 0 1 -5,-5v-10a5,5 0 0 1 5,-5z" style="stroke: rgb(0, 0, 0); fill: rgb(51, 51, 51); stroke-width: 0;"/><text x="6" y="13" style="font-family: -apple-system, BlinkMacSystemFont, &quot;Segoe WPC&quot;, &quot;Segoe UI&quot;, Ubuntu, &quot;Droid Sans&quot;, sans-serif, &quot;PingFang SC&quot;; font-size: 11px; text-rendering: geometricprecision; user-select: none; fill: rgb(255, 255, 255);">ScatterND</text><title>/ScatterND_2</title></g><path class="node node-border" d="M5,0h55.845672607421875a5,5 0 0 1 5,5v10a5,5 0 0 1 -5,5h-55.845672607421875a5,5 0 0 1 -5,-5v-10a5,5 0 0 1 5,-5z" style="stroke: rgb(51, 51, 51); fill: none; stroke-width: 1px;"/></g><g class="node" transform="translate(158.5252685546875,463)" style=""><g class="node-item graph-item-output" transform="translate(0,0)"><path d="M5,0h39.865753173828125a5,5 0 0 1 5,5v10a5,5 0 0 1 -5,5h-39.865753173828125a5,5 0 0 1 -5,-5v-10a5,5 0 0 1 5,-5z" style="stroke: rgb(0, 0, 0); fill: rgb(238, 238, 238); stroke-width: 0;"/><text x="6" y="13" style="font-family: -apple-system, BlinkMacSystemFont, &quot;Segoe WPC&quot;, &quot;Segoe UI&quot;, Ubuntu, &quot;Droid Sans&quot;, sans-serif, &quot;PingFang SC&quot;; font-size: 11px; text-rendering: geometricprecision; user-select: none;">actions</text><title>float32[1,2]</title></g><path class="node node-border" d="M5,0h39.865753173828125a5,5 0 0 1 5,5v10a5,5 0 0 1 -5,5h-39.865753173828125a5,5 0 0 1 -5,-5v-10a5,5 0 0 1 5,-5z" style="stroke: rgb(51, 51, 51); fill: none; stroke-width: 1px;"/></g><g class="node" transform="translate(214.41824340820312,141)" style=""><g class="node-item graph-item-output" transform="translate(0,0)"><path d="M5,0h21.968902587890625a5,5 0 0 1 5,5v10a5,5 0 0 1 -5,5h-21.968902587890625a5,5 0 0 1 -5,-5v-10a5,5 0 0 1 5,-5z" style="stroke: rgb(0, 0, 0); fill: rgb(238, 238, 238); stroke-width: 0;"/><text x="6" y="13" style="font-family: -apple-system, BlinkMacSystemFont, &quot;Segoe WPC&quot;, &quot;Segoe UI&quot;, Ubuntu, &quot;Droid Sans&quot;, sans-serif, &quot;PingFang SC&quot;; font-size: 11px; text-rendering: geometricprecision; user-select: none;">obs</text><title>float32[1,10]</title></g><path class="node node-border" d="M5,0h21.968902587890625a5,5 0 0 1 5,5v10a5,5 0 0 1 -5,5h-21.968902587890625a5,5 0 0 1 -5,-5v-10a5,5 0 0 1 5,-5z" style="stroke: rgb(51, 51, 51); fill: none; stroke-width: 1px;"/></g><g class="node" transform="translate(148.29547882080078,242)" style=""><g class="node-item graph-item-output" transform="translate(0,0)"><path d="M5,0h177.05673217773438a5,5 0 0 1 5,5v10a5,5 0 0 1 -5,5h-177.05673217773438a5,5 0 0 1 -5,-5v-10a5,5 0 0 1 5,-5z" style="stroke: rgb(0, 0, 0); fill: rgb(238, 238, 238); stroke-width: 0;"/><text x="6" y="13" style="font-family: -apple-system, BlinkMacSystemFont, &quot;Segoe WPC&quot;, &quot;Segoe UI&quot;, Ubuntu, &quot;Droid Sans&quot;, sans-serif, &quot;PingFang SC&quot;; font-size: 11px; text-rendering: geometricprecision; user-select: none;">memory.actor_hidden_state_0.out</text><title>float32[1,1,5]</title></g><path class="node node-border" d="M5,0h177.05673217773438a5,5 0 0 1 5,5v10a5,5 0 0 1 -5,5h-177.05673217773438a5,5 0 0 1 -5,-5v-10a5,5 0 0 1 5,-5z" style="stroke: rgb(51, 51, 51); fill: none; stroke-width: 1px;"/></g><g class="node" transform="translate(355.35221099853516,242)" style=""><g class="node-item graph-item-output" transform="translate(0,0)"><path d="M5,0h177.05673217773438a5,5 0 0 1 5,5v10a5,5 0 0 1 -5,5h-177.05673217773438a5,5 0 0 1 -5,-5v-10a5,5 0 0 1 5,-5z" style="stroke: rgb(0, 0, 0); fill: rgb(238, 238, 238); stroke-width: 0;"/><text x="6" y="13" style="font-family: -apple-system, BlinkMacSystemFont, &quot;Segoe WPC&quot;, &quot;Segoe UI&quot;, Ubuntu, &quot;Droid Sans&quot;, sans-serif, &quot;PingFang SC&quot;; font-size: 11px; text-rendering: geometricprecision; user-select: none;">memory.actor_hidden_state_1.out</text><title>float32[1,1,5]</title></g><path class="node node-border" d="M5,0h177.05673217773438a5,5 0 0 1 5,5v10a5,5 0 0 1 -5,5h-177.05673217773438a5,5 0 0 1 -5,-5v-10a5,5 0 0 1 5,-5z" style="stroke: rgb(51, 51, 51); fill: none; stroke-width: 1px;"/></g><g class="node" transform="translate(1.152740478515625,564)" style=""><g class="node-item graph-item-output" transform="translate(0,0)"><path d="M5,0h21.80389404296875a5,5 0 0 1 5,5v10a5,5 0 0 1 -5,5h-21.80389404296875a5,5 0 0 1 -5,-5v-10a5,5 0 0 1 5,-5z" style="stroke: rgb(0, 0, 0); fill: rgb(238, 238, 238); stroke-width: 0;"/><text x="6" y="13" style="font-family: -apple-system, BlinkMacSystemFont, &quot;Segoe WPC&quot;, &quot;Segoe UI&quot;, Ubuntu, &quot;Droid Sans&quot;, sans-serif, &quot;PingFang SC&quot;; font-size: 11px; text-rendering: geometricprecision; user-select: none;">out</text><title>float32[1,2]</title></g><path class="node node-border" d="M5,0h21.80389404296875a5,5 0 0 1 5,5v10a5,5 0 0 1 -5,5h-21.80389404296875a5,5 0 0 1 -5,-5v-10a5,5 0 0 1 5,-5z" style="stroke: rgb(51, 51, 51); fill: none; stroke-width: 1px;"/></g><g class="node" transform="translate(52.956634521484375,564)" style=""><g class="node-item graph-item-output" transform="translate(0,0)"><path d="M5,0h104.51226806640625a5,5 0 0 1 5,5v10a5,5 0 0 1 -5,5h-104.51226806640625a5,5 0 0 1 -5,-5v-10a5,5 0 0 1 5,-5z" style="stroke: rgb(0, 0, 0); fill: rgb(238, 238, 238); stroke-width: 0;"/><text x="6" y="13" style="font-family: -apple-system, BlinkMacSystemFont, &quot;Segoe WPC&quot;, &quot;Segoe UI&quot;, Ubuntu, &quot;Droid Sans&quot;, sans-serif, &quot;PingFang SC&quot;; font-size: 11px; text-rendering: geometricprecision; user-select: none;">memory.actions.out</text><title>float32[1,2]</title></g><path class="node node-border" d="M5,0h104.51226806640625a5,5 0 0 1 5,5v10a5,5 0 0 1 -5,5h-104.51226806640625a5,5 0 0 1 -5,-5v-10a5,5 0 0 1 5,-5z" style="stroke: rgb(51, 51, 51); fill: none; stroke-width: 1px;"/></g></g><g id="tunnel-edges" class="tunnel-edges"/></g></g><line class="node" x1="0" x2="562.4089431762695" y1="20" y2="20" style="stroke: rgb(51, 51, 51); fill: none; stroke-width: 1px;"/><path class="node node-border" d="M5,0h552.4089431762695a5,5 0 0 1 5,5v614a5,5 0 0 1 -5,5h-552.4089431762695a5,5 0 0 1 -5,-5v-614a5,5 0 0 1 5,-5z" style="stroke: rgb(51, 51, 51); fill: none; stroke-width: 1px;"/></g></g><line class="node" x1="0" x2="574.4089431762695" y1="0" y2="0" style="stroke: rgb(51, 51, 51); fill: none; stroke-width: 1px;"/></g><path class="node node-border" d="M5,0h564.4089431762695a5,5 0 0 1 5,5v897a5,5 0 0 1 -5,5h-564.4089431762695a5,5 0 0 1 -5,-5v-897a5,5 0 0 1 5,-5z" style="stroke: rgb(51, 51, 51); fill: none; stroke-width: 1px;"/></g><g class="node" transform="translate(736.8969955444336,1088)" style=""><g class="node-item graph-item-output" transform="translate(0,0)"><path d="M5,0h39.865753173828125a5,5 0 0 1 5,5v10a5,5 0 0 1 -5,5h-39.865753173828125a5,5 0 0 1 -5,-5v-10a5,5 0 0 1 5,-5z" style="stroke: rgb(0, 0, 0); fill: rgb(238, 238, 238); stroke-width: 0;"/><text x="6" y="13" style="font-family: -apple-system, BlinkMacSystemFont, &quot;Segoe WPC&quot;, &quot;Segoe UI&quot;, Ubuntu, &quot;Droid Sans&quot;, sans-serif, &quot;PingFang SC&quot;; font-size: 11px; text-rendering: geometricprecision; user-select: none;">actions</text><title>float32[1,2]</title></g><path class="node node-border" d="M5,0h39.865753173828125a5,5 0 0 1 5,5v10a5,5 0 0 1 -5,5h-39.865753173828125a5,5 0 0 1 -5,-5v-10a5,5 0 0 1 5,-5z" style="stroke: rgb(51, 51, 51); fill: none; stroke-width: 1px;"/></g><g class="node" transform="translate(684.928092956543,1088)" style=""><g class="node-item graph-item-output" transform="translate(0,0)"><path d="M5,0h21.968902587890625a5,5 0 0 1 5,5v10a5,5 0 0 1 -5,5h-21.968902587890625a5,5 0 0 1 -5,-5v-10a5,5 0 0 1 5,-5z" style="stroke: rgb(0, 0, 0); fill: rgb(238, 238, 238); stroke-width: 0;"/><text x="6" y="13" style="font-family: -apple-system, BlinkMacSystemFont, &quot;Segoe WPC&quot;, &quot;Segoe UI&quot;, Ubuntu, &quot;Droid Sans&quot;, sans-serif, &quot;PingFang SC&quot;; font-size: 11px; text-rendering: geometricprecision; user-select: none;">obs</text><title>float32[1,10]</title></g><path class="node node-border" d="M5,0h21.968902587890625a5,5 0 0 1 5,5v10a5,5 0 0 1 -5,5h-21.968902587890625a5,5 0 0 1 -5,-5v-10a5,5 0 0 1 5,-5z" style="stroke: rgb(51, 51, 51); fill: none; stroke-width: 1px;"/></g><g class="node" transform="translate(477.8713607788086,1088)" style=""><g class="node-item graph-item-output" transform="translate(0,0)"><path d="M5,0h177.05673217773438a5,5 0 0 1 5,5v10a5,5 0 0 1 -5,5h-177.05673217773438a5,5 0 0 1 -5,-5v-10a5,5 0 0 1 5,-5z" style="stroke: rgb(0, 0, 0); fill: rgb(238, 238, 238); stroke-width: 0;"/><text x="6" y="13" style="font-family: -apple-system, BlinkMacSystemFont, &quot;Segoe WPC&quot;, &quot;Segoe UI&quot;, Ubuntu, &quot;Droid Sans&quot;, sans-serif, &quot;PingFang SC&quot;; font-size: 11px; text-rendering: geometricprecision; user-select: none;">memory.actor_hidden_state_0.out</text><title>float32[1,1,5]</title></g><path class="node node-border" d="M5,0h177.05673217773438a5,5 0 0 1 5,5v10a5,5 0 0 1 -5,5h-177.05673217773438a5,5 0 0 1 -5,-5v-10a5,5 0 0 1 5,-5z" style="stroke: rgb(51, 51, 51); fill: none; stroke-width: 1px;"/></g><g class="node" transform="translate(270.8146286010742,1088)" style=""><g class="node-item graph-item-output" transform="translate(0,0)"><path d="M5,0h177.05673217773438a5,5 0 0 1 5,5v10a5,5 0 0 1 -5,5h-177.05673217773438a5,5 0 0 1 -5,-5v-10a5,5 0 0 1 5,-5z" style="stroke: rgb(0, 0, 0); fill: rgb(238, 238, 238); stroke-width: 0;"/><text x="6" y="13" style="font-family: -apple-system, BlinkMacSystemFont, &quot;Segoe WPC&quot;, &quot;Segoe UI&quot;, Ubuntu, &quot;Droid Sans&quot;, sans-serif, &quot;PingFang SC&quot;; font-size: 11px; text-rendering: geometricprecision; user-select: none;">memory.actor_hidden_state_1.out</text><title>float32[1,1,5]</title></g><path class="node node-border" d="M5,0h177.05673217773438a5,5 0 0 1 5,5v10a5,5 0 0 1 -5,5h-177.05673217773438a5,5 0 0 1 -5,-5v-10a5,5 0 0 1 5,-5z" style="stroke: rgb(51, 51, 51); fill: none; stroke-width: 1px;"/></g><g class="node" transform="translate(219.01073455810547,1088)" style=""><g class="node-item graph-item-output" transform="translate(0,0)"><path d="M5,0h21.80389404296875a5,5 0 0 1 5,5v10a5,5 0 0 1 -5,5h-21.80389404296875a5,5 0 0 1 -5,-5v-10a5,5 0 0 1 5,-5z" style="stroke: rgb(0, 0, 0); fill: rgb(238, 238, 238); stroke-width: 0;"/><text x="6" y="13" style="font-family: -apple-system, BlinkMacSystemFont, &quot;Segoe WPC&quot;, &quot;Segoe UI&quot;, Ubuntu, &quot;Droid Sans&quot;, sans-serif, &quot;PingFang SC&quot;; font-size: 11px; text-rendering: geometricprecision; user-select: none;">out</text><title>float32[1,2]</title></g><path class="node node-border" d="M5,0h21.80389404296875a5,5 0 0 1 5,5v10a5,5 0 0 1 -5,5h-21.80389404296875a5,5 0 0 1 -5,-5v-10a5,5 0 0 1 5,-5z" style="stroke: rgb(51, 51, 51); fill: none; stroke-width: 1px;"/></g><g class="node" transform="translate(84.49846649169922,1088)" style=""><g class="node-item graph-item-output" transform="translate(0,0)"><path d="M5,0h104.51226806640625a5,5 0 0 1 5,5v10a5,5 0 0 1 -5,5h-104.51226806640625a5,5 0 0 1 -5,-5v-10a5,5 0 0 1 5,-5z" style="stroke: rgb(0, 0, 0); fill: rgb(238, 238, 238); stroke-width: 0;"/><text x="6" y="13" style="font-family: -apple-system, BlinkMacSystemFont, &quot;Segoe WPC&quot;, &quot;Segoe UI&quot;, Ubuntu, &quot;Droid Sans&quot;, sans-serif, &quot;PingFang SC&quot;; font-size: 11px; text-rendering: geometricprecision; user-select: none;">memory.actions.out</text><title>float32[1,2]</title></g><path class="node node-border" d="M5,0h104.51226806640625a5,5 0 0 1 5,5v10a5,5 0 0 1 -5,5h-104.51226806640625a5,5 0 0 1 -5,-5v-10a5,5 0 0 1 5,-5z" style="stroke: rgb(51, 51, 51); fill: none; stroke-width: 1px;"/></g></g><g id="tunnel-edges" class="tunnel-edges"><defs><marker id="arrowhead-tunnel" viewBox="0 0 10 10" refX="9" refY="5" markerUnits="strokeWidth" markerWidth="8" markerHeight="6" orient="auto" style="fill: rgb(0, 0, 0);"><path d="M 0 0 L 10 5 L 0 10 L 4 5 z" style="stroke-width: 1;"/></marker></defs><path class="edge-path edge-path-tunnel" d="M60.54529859806941,80C60.54529859806941,200.45,-5.0981775723971055,324.55,286.9018224276029,445" marker-end="url(#arrowhead-tunnel)" style="stroke: rgb(0, 0, 0); stroke-width: 1px; fill: none; marker-end: url(&quot;#arrowhead-tunnel&quot;); stroke-dasharray: 5, 3;"/><path class="edge-path edge-path-tunnel" d="M185.55015396115647,80C185.55015396115647,213.65,51.23409934893044,351.35,291.23409934893044,485" marker-end="url(#arrowhead-tunnel)" style="stroke: rgb(0, 0, 0); stroke-width: 1px; fill: none; marker-end: url(&quot;#arrowhead-tunnel&quot;); stroke-dasharray: 5, 3;"/><path class="edge-path edge-path-tunnel" d="M275.13036197134164,80C275.13036197134164,200.45,213.78579072218673,324.55,359.78579072218673,445" marker-end="url(#arrowhead-tunnel)" style="stroke: rgb(0, 0, 0); stroke-width: 1px; fill: none; marker-end: url(&quot;#arrowhead-tunnel&quot;); stroke-dasharray: 5, 3;"/><path class="edge-path edge-path-tunnel" d="M360.53703034333273,80C360.53703034333273,226.85,245.0508474185143,378.15000000000003,325.0508474185143,525" marker-end="url(#arrowhead-tunnel)" style="stroke: rgb(0, 0, 0); stroke-width: 1px; fill: none; marker-end: url(&quot;#arrowhead-tunnel&quot;); stroke-dasharray: 5, 3;"/><path class="edge-path edge-path-tunnel" d="M521.2383331447412,80C521.2383331447412,213.65,432.86421417863403,351.35,432.86421417863403,485" marker-end="url(#arrowhead-tunnel)" style="stroke: rgb(0, 0, 0); stroke-width: 1px; fill: none; marker-end: url(&quot;#arrowhead-tunnel&quot;); stroke-dasharray: 5, 3;"/><path class="edge-path edge-path-tunnel" d="M716.9608133205546,80C716.9608133205546,213.65,601.7924539748936,351.35,521.7924539748936,485" marker-end="url(#arrowhead-tunnel)" style="stroke: rgb(0, 0, 0); stroke-width: 1px; fill: none; marker-end: url(&quot;#arrowhead-tunnel&quot;); stroke-dasharray: 5, 3;"/><path class="edge-path edge-path-tunnel" d="M372.561850810153,80C372.561850810153,121.91,565.9495533647208,165.09,515.1495533647209,207" marker-end="url(#arrowhead-tunnel)" style="stroke: rgb(0, 0, 0); stroke-width: 1px; fill: none; marker-end: url(&quot;#arrowhead-tunnel&quot;); stroke-dasharray: 5, 3;"/><path class="edge-path edge-path-tunnel" d="M503.6953090533175,80C503.6953090533175,122.77636741836334,325.7831976493103,166.8489883948589,248.00798416137695,209.62535581322223" marker-end="url(#arrowhead-tunnel)" style="stroke: rgb(0, 0, 0); stroke-width: 1px; fill: none; marker-end: url(&quot;#arrowhead-tunnel&quot;); stroke-dasharray: 5, 3;"/><path class="edge-path edge-path-tunnel" d="M702.6475150254079,80C702.6475150254079,122.7039358151074,558.5894092242202,166.70193029127867,455.0647163391113,209.40586610638607" marker-end="url(#arrowhead-tunnel)" style="stroke: rgb(0, 0, 0); stroke-width: 1px; fill: none; marker-end: url(&quot;#arrowhead-tunnel&quot;); stroke-dasharray: 5, 3;"/></g></g></svg>